/* XPM */
static char *_297b33766284274b1289b90421bdb9b3pGoIZgh61VNLSNe[] = {
/* columns rows colors chars-per-pixel */
"64 64 256 2 ",
"   c #0D040A",
".  c #0E090D",
"X  c #0D0406",
"o  c #12060C",
"O  c #19060B",
"+  c #14090D",
"@  c #1B0B0D",
"#  c #150606",
"$  c #0F0911",
"%  c #140B13",
"&  c #1B0B14",
"*  c #1C0E19",
"=  c #160A15",
"-  c #1E1114",
";  c #17121C",
":  c #1C121C",
">  c #171418",
",  c #1D100F",
"<  c #230C0E",
"1  c #220B15",
"2  c #2A0E16",
"3  c #240D19",
"4  c #290E1A",
"5  c #200611",
"6  c #241114",
"7  c #2B1216",
"8  c #22131C",
"9  c #2B131C",
"0  c #251B1D",
"q  c #2A1B1D",
"w  c #2A1817",
"e  c #33151C",
"r  c #33191D",
"t  c #38171D",
"y  c #330E17",
"u  c #31231D",
"i  c #1C1523",
"p  c #1C1924",
"a  c #1B1827",
"s  c #221522",
"d  c #2C1422",
"f  c #251A23",
"g  c #2B1B23",
"h  c #241C2B",
"j  c #2B1D2A",
"k  c #21172A",
"l  c #331523",
"z  c #331B24",
"x  c #3B1C24",
"c  c #331D29",
"v  c #3A1D2C",
"b  c #391620",
"n  c #261D31",
"m  c #2A1E31",
"M  c #3D1F32",
"N  c #242426",
"B  c #2C2223",
"V  c #23212D",
"C  c #2E222C",
"Z  c #2B2C2B",
"A  c #282927",
"S  c #322425",
"D  c #33232C",
"F  c #3C232D",
"G  c #352A2A",
"H  c #382826",
"J  c #32342E",
"K  c #3A372C",
"L  c #262432",
"P  c #2C2333",
"I  c #2D2A3B",
"U  c #2C2639",
"Y  c #332532",
"T  c #3C2533",
"R  c #352934",
"E  c #3D2A35",
"W  c #332A3C",
"Q  c #3C2C3B",
"!  c #31253C",
"~  c #333333",
"^  c #3D323C",
"/  c #3A3735",
"(  c #2F3230",
")  c #441E29",
"_  c #531D2D",
"`  c #43242B",
"'  c #4A252B",
"]  c #56292D",
"[  c #422533",
"{  c #432B35",
"}  c #4C2D35",
"|  c #432D3A",
" . c #4A2D3C",
".. c #482635",
"X. c #522A32",
"o. c #582B37",
"O. c #4B3136",
"+. c #43313C",
"@. c #4C323C",
"#. c #433836",
"$. c #54343C",
"%. c #5C353B",
"&. c #563636",
"*. c #5B3729",
"=. c #622E36",
"-. c #66363A",
";. c #763B3A",
":. c #612D2F",
">. c #401E1E",
",. c #3E4039",
"<. c #43423A",
"1. c #59432E",
"2. c #684638",
"3. c #70513B",
"4. c #706238",
"5. c #342D42",
"6. c #3A2E43",
"7. c #372E49",
"8. c #353145",
"9. c #3B3245",
"0. c #3B334B",
"q. c #393649",
"w. c #3D3751",
"e. c #2F2C40",
"r. c #452F41",
"t. c #433343",
"y. c #4B3344",
"u. c #4B3A4D",
"i. c #463848",
"p. c #5B3C43",
"a. c #553947",
"s. c #433B54",
"d. c #453C5B",
"f. c #453A53",
"g. c #583E54",
"h. c #643B45",
"j. c #673C47",
"k. c #743A44",
"l. c #683E54",
"z. c #473F60",
"x. c #3B4246",
"c. c #484947",
"v. c #594546",
"b. c #494658",
"n. c #594857",
"m. c #575856",
"M. c #53594B",
"N. c #6A4449",
"B. c #774648",
"V. c #6C5545",
"C. c #77574C",
"Z. c #67475A",
"A. c #764A56",
"S. c #79535A",
"D. c #665359",
"F. c #5B6758",
"G. c #7A6845",
"H. c #746755",
"J. c #4C4965",
"K. c #56536B",
"L. c #565272",
"P. c #684D62",
"I. c #685768",
"U. c #795467",
"Y. c #785A74",
"T. c #6A5670",
"R. c #5D6971",
"E. c #677669",
"W. c #646779",
"Q. c #7B647B",
"!. c #6D7A77",
"~. c #6F6A6C",
"^. c #84473E",
"/. c #8B4C44",
"(. c #884A49",
"). c #8D534C",
"_. c #86544B",
"`. c #93544D",
"'. c #94584B",
"]. c #864C59",
"[. c #875659",
"{. c #955A54",
"}. c #9B5C54",
"|. c #955957",
" X c #924E4E",
".X c #9D625A",
"XX c #9C6357",
"oX c #88724B",
"OX c #A36A5D",
"+X c #A2655A",
"@X c #885965",
"#X c #955F6B",
"$X c #894E60",
"%X c #876169",
"&X c #976666",
"*X c #886976",
"=X c #986B75",
"-X c #98717B",
";X c #A46C63",
":X c #A56C66",
">X c #AA7365",
",X c #AB746A",
"<X c #AD7B6C",
"1X c #A67266",
"2X c #B37B6D",
"3X c #A77A78",
"4X c #B47E72",
"5X c #B26E68",
"6X c #A05E5C",
"7X c #968A4B",
"8X c #9A904F",
"9X c #A59B52",
"0X c #B38273",
"qX c #B68A7B",
"wX c #BB8B7C",
"eX c #B98777",
"rX c #B08374",
"tX c #ABA159",
"yX c #C18D7F",
"uX c #716E89",
"iX c #625D81",
"pX c #856886",
"aX c #8A778A",
"sX c #9C7684",
"dX c #917696",
"fX c #A37C88",
"gX c #997CA0",
"hX c #768488",
"jX c #7B8A94",
"kX c #7F959A",
"lX c #798AA6",
"zX c #84969C",
"xX c #908898",
"cX c #A8848B",
"vX c #B78C86",
"bX c #BC9283",
"nX c #BA928B",
"mX c #A98A98",
"MX c #AC919D",
"NX c #B38F98",
"BX c #9394A6",
"VX c #A894A9",
"CX c #B39AA6",
"ZX c #AD93AC",
"AX c #8CA4AE",
"SX c #B9A3AD",
"DX c #B9A5B1",
"FX c #C19588",
"GX c #C09395",
"HX c #C4A193",
"JX c #CAABB5",
"KX c #B0AECA",
"LX c #9AACC8",
"PX c #C7B0D0",
"IX c #D9C8E1",
"UX c #E7D4ED",
/* pixels */
"h L V V V L V L L L L I I e.8.8.7.w.w.n ; iXLXx.( ,.( A a a a a N A F.F.V L V V L n n P P P P h p i : > > ; > i p s V U ! R P k ",
"a V V V V V V V L L L L I e.8.q.w.z.w.a J.LXR.( ,.( a a ; p N N ( x.x.p a p i i ; i i i s h h P P V p i ; : ; = ; > : s h U W 5.",
"V V a L V L L e.I L L U I 8.q.8.q.x.e.L.LXAXe.( A a a a p A A A ,.,.( A A p ; $ $ % % $ ; ; i i s h h h k i : : : - = * - * 8 k ",
"a a L I 8.w.w.q.b.8.L I I q.b.8.q.q.iXLXLXuXL L N A A A A A ( ,.( A ,.( Z B p ; > $ $ $ $ $ % > : : : s f f s : 8 i : > = > & % ",
"I 5.8.7.I U U U I b.8.I W e.8.q.8.J.AXlXlXx.N A ( ( J J ( ( ( N > ; = = > % > + = $ $ . . $ $ $ = : > * > : s s s s 0 8 > * * = ",
"I I P P I 5.5.5.U I q.e.I 8.8.8.q.W.iXiXR.8.A A ( ( J ,.A A ; a k U 5.! h a : ; = $ .   . . $ $ $ % % > = * > : 0 : : : 8 : ; - ",
"L U ! W W W ! 5.I U I q.e.8.q.8.q.x.x.x.x.,.A ,.( ( ( A p > L d.L.L.z.7.5.m j h k ; $ $ . . . . . . . > = = = - ; : : 8 : 8 : > ",
"U U U U W 5.5.5.I U I I q.8.q.q.q.8.x.~ ( ( ,.( ( N a a p L x.z.7.n a k i ; = = ; : ; $ $ . . . . . . $ % = % % % * * : & * : 8 ",
"I W 5.5.9.7.7.0.5.L I I I 8.9.q.w.d.d.n.c.( V a p a a i n e.k ; k k m 5.! ! ! s *     o = =     . . . + . % = o + % = * * = * & ",
"7.7.7.0.0.w.w.w.8.I I W 8.8.q.f.J.J.J.u.q.8.q.L p a i i a ; i k k ; i n 7.w.! m k ; $     $ = = . . . . @ % % % % + o % @ = & * ",
"d.d.d.d.d.z.z.d.w.q.0.w.f.f.s.d.J.uXL.iXW.L.iXJ.L i i i ; ; i a n 7.! * o = * = = = * ; =   o * - + o % % . + % % @ + . . @ % & ",
"w.0.7.5.! 5.I W 5.5.9.0.0.0.w.t.0.L.iXuXz.7.J.w.L V a a k a = & = i r.L.0.=   o = $ = = ; ; o   * : % . % + % o % % + o o o . @ ",
"n n P P U R W 5.6.6.7.0.0.0.q.i.w.iXiXL.n : h a a a a i m T.T...d *   m K.r.= X   $ = = = i k * o * 3 = % o + % @ % & % % o o o ",
"P P P U ! W 5.Q 6.6.0.t.0.9.f.7.L.uXf.0.w.s.! * ; i * s ! pXgXiX .v e O O s i .   $ o = o = 8 k : o 3 * @ % % o % + * & % = o o ",
"P P Y ! ! W W W W 6.6.6.0.t.0.f.iXJ.s.k ! d.f.m 8 i s * g.pXpXpXj.....H 1 o * = o   o & = & = * s 8 & * = % % % % o % = = = * o ",
"Q | t.t.t.y.t.t.t.i.i.i.u.f.f.b.d.s.7.g.[ 1 * s s s * i iXpXpXU.l.j...x F 1 @ * =   o & = 3 = * * 3 3 & * = o % % = & = = & & * ",
"| r.| r.r.t.y.t.i.y.u.i.u.u.g.b.5.0.6.P.l.l.m d : * & R Q.pX*Xl.A.#X$Xo.w z & 3 * % X & 3 O & & * & 4 3 & * = O = = = = = & 5 5 ",
"R T T R T Q Q Q 6.r.t.t.r.y.d.t.U ! 6.g.Z.M 3 8 8 s : c.I.*XP.A.$X@X$Xk.x 6 q & 1 = o o 3 & = * & 3 3 3 3 = = = O = & = & = & & ",
"C C P C Y P ! R ! W Q 6.7.t.b.! m m R g...l [ g s f C c.c.Q.S.] j.].$Xk.o.@ w - 3 3 & @ & 3 & o = 3 3 & 3 * & & & & & & & & 5 & ",
"j Y Y Y P Y Y W Q Q Q 6.r.i.g.k j k j g.r.y.| 8 j s / <./ m.*X-.5 5 ' %.=.x & 6 & d 3 = o 3 3 O O = 4 3 5 & & & & & & & & * 3 5 ",
"j j P C D Y Y T | E Q | | u.| * s s 8 a.g...l k j s / b.M.<.m.B._ y 5 < ) -.` e 6 q 9 1 # & d 1 O & 4 4 1 * * * & & & & & 3 3 * ",
"g j C D C P Y E  .{ | ..[ y.P * s i 3 y.l. .s s h f / m.I.<.<.m.-._ ;.=.O X.%.x 6 9 z 3 & % l d & & 3 4 3 1 5 * * 5 & * 5 5 5 5 ",
"g j C j j D Y T  . ...[ [ y.j * 8 3 3 [ Z.| 3 i s f ~ c.c.b.,.c.<.{ ) ] < ] =.` 7 6 x 9 1 # 3 l 3 O & 4 3 5 3 * 5 5 5 3 5 5 3 * ",
"C B D j Y { T T | { {  .r.t.s = 8 : 3 l y.v * s i 8 C ~ c.q.#.J <.#.E t %.].o.` 7 1 x z 3 & * l d & & 5 4 5 5 5 3 5 3 m 4 * 3 5 ",
"j g j j c F T T T T T T T 6.i = 3 8 3 c [ d * 3 i * s P / I Z G u K G G { O.{ H 6 @ w x 6 @ o 4 l 5 O 5 4 5 3 5 5 3 5 3 m m 5 & ",
"C j D D D R T T E E E ! Q 6.* * : * : c | 3 * 3 * * * s B N p f 0 B B 0 0 K #.H , @ 6 ) 7 & O 3 4 3 = & 4 3 3 5 3 5 3 5 3 M Q l ",
"D D Y T T T [ T T T Q ! ! Q 8 = * 3 s | a.3 & 3 3 * - * - / K : : w G #.#.K G 6 , @ O ` e & O O d 4 O 5 4 4 1 3 3 d 3 * 1 1 ! r.",
"F T D F T [ T T T T T E Q T i * * * 3 a.P.l & 4 8 = - 8 - q #.C N #./ S B 0 q - @ # X z z & O O d 4 & = 4 4 4 5 = d l d 1 3 3 v ",
"F D T F [ { [ E T T T E 6.E 8 * & & 4 g.T.M & 4 4 9 & * - @ - G G S s 0 f B 0 - @ # X q l 5 O O 4 4 5 & 1 4 3 3 & & 3 3 4 4 3 9 ",
"F T ` T [ [ [ { [ Q E [ | T 8 * & & M U.Y.a.& 4 d d d 4 1 & & 6 8 : 8 0 0 B 0 6 @ + X 6 v & O O 3 4 5 & 3 4 1 3 1 1 1 1 3 3 3 3 ",
"F F F ` F F [ ` T T T | | E 8 8 8 O u.uXY.Z.v 1 4 z z z z e d l r q w 0 B B B - # X X 1 v 5 O O 3 d 5 5 1 4 3 1 1 2 2 2 4 2 9 9 ",
"F x H F F F F T T [ E | E E d * f : T.%XP.Z.a.) l 7 9 x x H x S H S N B S G 0 & O X X 5 v 3 O O 1 4 2 5 2 4 2 2 2 3 2 9 2 7 2 9 ",
"9 q g q g g g j c S D C D c C : . D Q.Y.Z.Z.h.} X.S , G 0 6 0 q ` G B g G C 6 , @ + X @ x 2 O # 1 9 2 @ 1 e 2 7 d 9 9 d 9 9 z z ",
"f d q q q g g g g D j B g C R : P ~.xXQ.U.Z.p.} ..' @ J G q G q O.K B Z 0 - @ , , @ X O l 2 1 # 2 9 2 5 1 e 2 c +.| E Q E E { E ",
"z z c c j c C c C D R Q i.q.g f jXBXzXkXuX~.2.#.] ' r q #.q / H #.S S D.Q.aXK.w # , X O r 7 j O 2 9 9 1 2 e 4 T t.t.Q | { E E E ",
"g f f d f f j B j D R t.P s % 9.jXjXhXhXF.F.<.1.` ) t , #.S H E $.xXKXPXPXPXDXVXn.# # < r 9 | w 1 y 9 2 y e 9 Q Q Q E E E E { E ",
"C C C f 0 : j g m m R j f * 8 W.zXzXzX!.F.<.,.K H u r 7 9 S @ ~.IXIXJXmXmXmXgXdXgX=Xg O r 9 t.T 2 2 e 2 e e g | 6.Q Q E E E { +.",
"R Y D g s : f P P Y Y s = f !.BXzX!.!.E.E.M.<.u u u w w O z VXUXJXfX=XsXcXxXfXGXNXNXmXy.1 g i.t.e 2 t 2 t e T t.| t.^ E E F E +.",
"C C C s 8 0 s j k P h 3 8 R.BXzXhXuXE.E.M.,.K H u 6 - @ a.PXIXfX#X#XsXfXVXVXmXCXmXsXsXsX} g f.t.7 e r 2 t e t.t.t.6.+.E R F { ^ ",
"g g B f d f j j j j s k Z !.jXhXhX!.F.M.K u K H H n.T.aXPXPX#X$X$XfXmXMXCXSXVXVXVXsX3X&XU.| i.| w e e e t x i.+.6.| E D D R E E ",
"C j g f 0 j C j h m j s b.jXzXzXhX!.E.F.#.n.{ #.ZXKXZXPXZX#X}. X=XfXmXNXCXDXDXVXmXsX=X0X,XA.m ^ H r t t z { t.+.+.Q R c D D E E ",
"C g f g g C R V B Y s 8.jXzXkXhX!.E.F.#.$.E - pXgXZ.pXZX|.}.5X$X#XsXcXCXCXDXSXSXMXcX-X|.+X|.e 3 S t t t x t.t.t.r.Q R D j D R E ",
"C B C C C Y T Y S C f R.hXhXhXhXhXE.v.c a.d n.Y.l.k.sX@X^.6X|. X$X3XfXNXCXJXSXCXVXsXsX[.(.&X%.@ 6 7 e t @.i.t.+.Q Q E E R F T R ",
"R D Y D D R R C C 0 b.hXjXkXkXzX~.G c n.c M P.a.A.].A.=.k.6X X X5XFXFXnXCXCXCXCXCXfXsX@X-. XN.& 7 2 1 7 D +.y.+.| Q | Q { E R F ",
"^ W R R R R G D g c.hXzXAXAXzXm.9 { [ a.d a.a.A.@XA.k.-.;.`.`.{.2XyXFXFXfXCXCXCXmXcX-X$Xk.;.B.6 6 6 6 6 @ 6 r { @.| E | | | E E ",
"^ ^ ^ ^ R R E D i.hXzXjXhXK.+.4 @.y.y.c b X.j.$X].B.j.k.k.}.}.+X5XeXeXFXfXmXMXNXmXcX-X[.B.h.B.6 6 1 7 7 6 1 @ & q R | E E E E { ",
"9.t.i.9.^ Q Q E Q n.R z e y l z l.[ [ 2 ] _ k.$XA.j.p.k.B.}.}.+X4XeXeXyXvXfXvXNXcX3X&X].k.-.N.S z e r r w w 6 @ # # D | E | | { ",
"9.t.i.i.t.+.| t.E a.c a.E { z |  . .9 t o.o.U.$Xj.j.A.B. X+X}.+X2XeXeXyXvXFXFXvXfX-X&XS.j.=.-.+.` H { @.@. .E G g 6 @ S | E { E ",
"t.i.c.i.9.^ c.P.z x n.g...4 4 l [ v 1 _ ..h.@Xj.j.U.S.A.`.`.`.5X>X0X0XeXwXwXwXqX-X=X|.A.N.*.$.{ { { { { +.@.| | E T z 6 z { { R ",
"t.t.^ u.P.+.g.[ 9 y.Z.a.[ 4 d l M 5 b ) o.l.U.p.A.@X@X].`.{.+X+XOX0X0XqXwXwXrXbXcX&X|.(.-.-.$.E E { { | { @.@.{ | E E F g T { [ ",
"i.9.E Z.Z.+.s g.P.z y. .4 l v r.3 4 _ ) y.A.U.h.S.Y.@X*X'./.`.}.XX;XrXqXwXqXrX>XrX[.[.B.-.:.N.@.T | { { | |  .{ { { T E { F { { ",
"i.+.Q n.4 F @.Z.P.@.z v l ..y.4 5 ] X.[ a.$XA.l.%X%X=X&X X/./. X.X.X<XbXbXwXrXOXOX).-.k.-.*.(.N.| | #.{ #.{  .#.{  .{ F { { [ { ",
"+.Q a.aXP.d 3 9 d F v v [ v 4 1 _ ;.o.[ p.@XA.A.U.=XrX&X_.^. X}.'.OX;XqXbXFXbXrXXX}.2.*.-.*././.N.T T E { { { { { #.+.` { { { { ",
"t.Y.gXxXxXaX{ 2 3 1 1 2 1 5 5 t =.;._ o.N.Y.Z.S.S.*X-X[.[.OX;./.XX&X1XrXwXbXHXqXOX'.'.] ] -.}./.N.D.{ { E { { { { { O.{ ` O.O.} ",
"aXxXsXY.pXY.| T z d d 4 4 2 l ] -.;.' $.Z.U.h.v.C.%X%X&XOXwX/./..X.X&X0XqXbXqXbXqX>X/.;.] =.}.'.2.V.D.@.@.y.@.$.$.@.O.O.{ ` *.%.",
"aXQ.n.a.Z.| M v c x ) ) ) ) ) ] -.=.` %.A.-XN.N.A.S.%XeXXXwXOX/.XX.X;X0XqXbXbXrXrXOX/.^.2.-.+X}.3.&.V.C.p.y.y.O.@. .O.{ O.` z G ",
"Z.a. .y.r.M M v v v _ ) :.-.:.:.o...X.$.A.@XN.'.N.D.%X<X,XwX{.(.}.OX,X4XqXbXbXqXrX8XOX'.^._.+X}.C.1.V.V.H.2.@.@.O.O.{ O.O.} } F ",
" .| ..| [ M v M l ) :.(.{.+X{.;.] v o.h.N.N.'.'.N.N.3X0X<XeX_.*.).}.,X0XqXwXbXqXrX0XOX}.^.|.;X+X_.1.G.3.D.~.&.O.@.O.O.O.O.O.O.O.",
"..{ { [ M M M M ) :.(.}.;X;X;X/.] ' $.h.N.A.C.)._.p.&X<X<XeXC.` ;.`.+X0XqXwXnXqXeX0X>XXX/.).>X>XV.3.oX4.V.C.H.O.@.$.O.O.p.$.O.O.",
"{ { T M M M M v X. X X X6X;X:X X-.' } %.N.B.(._.B.N.[.,X4X2XN.*.&.B.+X1XrXvXqXwXwXrXOX'.^./.;X,X2.G.9XG.G.3.C.v.@.$.@.$.p.&.$.&.",
"..{ ` T v M M _ ^.}.;X|.|.;X:X}.;.X.} &.N.B..X|._.V._.,X0X>X*.' N.-.C.rX,XrXbXbXeX0XOXOX^.^.>XXX1.9X9X7XG.4.3.*.%.p.$.@.$.$.a.$.",
"{ [ v v M _ M a.(.}.}.:X;X:X:X;X;...X.%.N.N..X|._._.C.2X>XXX] ] -.B.A.&XrXFXbXwX0X0X0XXX'.^.+X2.4.9X8X8X7XG.G.H E v.$.$.p.$.$.$.",
"[ T v v ..y.%.k.(. X;X}.&X;X,X,X_.' O.%.-.B.`.[.)._.%X2XOX'.' ' %.N.U.=X-XMXJXHXeX0X0X+X'.^.2.1.7X9X7X9X7XoXG.u w p.a.$.$.$.$.p.",
"F x x [ ..h.j.B. X{.OXOX.X;X,X,XXX] ] %.-.-.2.[.XX_.[.2XOX^.x ' %.N.S.Q.rXcXnXHXyX>X>X+X'.^.*.4.8X7X8X9X7XoX4.w 6 $.p.N.$.$.$.p."
};
