/* XPM */
static char *_029186ae992438ed24b05ee29df80951FZIQibzvzf32XHP[] = {
/* columns rows colors chars-per-pixel */
"64 64 256 2 ",
"   c black",
".  c #010101",
"X  c #020202",
"o  c gray1",
"O  c #040404",
"+  c gray2",
"@  c #060606",
"#  c #070707",
"$  c gray3",
"%  c #090909",
"&  c gray4",
"*  c #0B0B0B",
"=  c #0C0C0C",
"-  c gray5",
";  c #0E0E0E",
":  c gray6",
">  c #101010",
",  c #111111",
"<  c gray7",
"1  c #131313",
"2  c gray8",
"3  c #151515",
"4  c #161616",
"5  c gray9",
"6  c #181818",
"7  c #191919",
"8  c gray10",
"9  c #1B1B1B",
"0  c gray11",
"q  c #1D1D1D",
"w  c #1E1E1E",
"e  c gray12",
"r  c #202020",
"t  c gray13",
"y  c #222222",
"u  c #232323",
"i  c gray14",
"p  c #252525",
"a  c gray15",
"s  c #272727",
"d  c #282828",
"f  c gray16",
"g  c #2A2A2A",
"h  c gray17",
"j  c #2C2C2C",
"k  c #2D2D2D",
"l  c gray18",
"z  c #2F2F2F",
"x  c gray19",
"c  c #313131",
"v  c #323232",
"b  c gray20",
"n  c #343434",
"m  c #353535",
"M  c gray21",
"N  c #373737",
"B  c gray22",
"V  c #393939",
"C  c #3A3A3A",
"Z  c gray23",
"A  c #3C3C3C",
"S  c gray24",
"D  c #3E3E3E",
"F  c #3F3F3F",
"G  c gray25",
"H  c #414141",
"J  c gray26",
"K  c #434343",
"L  c #444444",
"P  c gray27",
"I  c #464646",
"U  c gray28",
"Y  c #484848",
"T  c #494949",
"R  c gray29",
"E  c #4B4B4B",
"W  c #4C4C4C",
"Q  c gray30",
"!  c #4E4E4E",
"~  c gray31",
"^  c #505050",
"/  c #515151",
"(  c gray32",
")  c #535353",
"_  c gray33",
"`  c #555555",
"'  c #565656",
"]  c gray34",
"[  c #585858",
"{  c gray35",
"}  c #5A5A5A",
"|  c #5B5B5B",
" . c gray36",
".. c #5D5D5D",
"X. c gray37",
"o. c #5F5F5F",
"O. c #606060",
"+. c gray38",
"@. c #626262",
"#. c gray39",
"$. c #646464",
"%. c #656565",
"&. c gray40",
"*. c #676767",
"=. c #686868",
"-. c DimGray",
";. c #6A6A6A",
":. c gray42",
">. c #6C6C6C",
",. c #6D6D6D",
"<. c gray43",
"1. c #6F6F6F",
"2. c gray44",
"3. c #717171",
"4. c #727272",
"5. c gray45",
"6. c #747474",
"7. c gray46",
"8. c #767676",
"9. c #777777",
"0. c gray47",
"q. c #797979",
"w. c gray48",
"e. c #7B7B7B",
"r. c #7C7C7C",
"t. c gray49",
"y. c #7E7E7E",
"u. c gray50",
"i. c #808080",
"p. c #818181",
"a. c gray51",
"s. c #838383",
"d. c #848484",
"f. c gray52",
"g. c #868686",
"h. c gray53",
"j. c #888888",
"k. c #898989",
"l. c gray54",
"z. c #8B8B8B",
"x. c gray55",
"c. c #8D8D8D",
"v. c #8E8E8E",
"b. c gray56",
"n. c #909090",
"m. c gray57",
"M. c #929292",
"N. c #939393",
"B. c gray58",
"V. c #959595",
"C. c gray59",
"Z. c #979797",
"A. c #989898",
"S. c gray60",
"D. c #9A9A9A",
"F. c #9B9B9B",
"G. c gray61",
"H. c #9D9D9D",
"J. c gray62",
"K. c #9F9F9F",
"L. c #A0A0A0",
"P. c gray63",
"I. c #A2A2A2",
"U. c gray64",
"Y. c #A4A4A4",
"T. c #A5A5A5",
"R. c gray65",
"E. c #A7A7A7",
"W. c gray66",
"Q. c #A9A9A9",
"!. c #AAAAAA",
"~. c gray67",
"^. c #ACACAC",
"/. c gray68",
"(. c #AEAEAE",
"). c #AFAFAF",
"_. c gray69",
"`. c #B1B1B1",
"'. c #B2B2B2",
"]. c gray70",
"[. c #B4B4B4",
"{. c gray71",
"}. c #B6B6B6",
"|. c #B7B7B7",
" X c gray72",
".X c #B9B9B9",
"XX c gray73",
"oX c #BBBBBB",
"OX c #BCBCBC",
"+X c gray74",
"@X c gray",
"#X c gray75",
"$X c #C0C0C0",
"%X c #C1C1C1",
"&X c gray76",
"*X c #C3C3C3",
"=X c gray77",
"-X c #C5C5C5",
";X c #C6C6C6",
":X c gray78",
">X c #C8C8C8",
",X c gray79",
"<X c #CACACA",
"1X c #CBCBCB",
"2X c gray80",
"3X c #CDCDCD",
"4X c #CECECE",
"5X c gray81",
"6X c #D0D0D0",
"7X c gray82",
"8X c #D2D2D2",
"9X c LightGray",
"0X c gray83",
"qX c #D5D5D5",
"wX c gray84",
"eX c #D7D7D7",
"rX c #D8D8D8",
"tX c gray85",
"yX c #DADADA",
"uX c gray86",
"iX c gainsboro",
"pX c #DDDDDD",
"aX c gray87",
"sX c #DFDFDF",
"dX c gray88",
"fX c #E1E1E1",
"gX c #E2E2E2",
"hX c gray89",
"jX c #E4E4E4",
"kX c gray90",
"lX c #E6E6E6",
"zX c #E7E7E7",
"xX c gray91",
"cX c #E9E9E9",
"vX c #EAEAEA",
"bX c gray92",
"nX c #ECECEC",
"mX c gray93",
"MX c #EEEEEE",
"NX c #EFEFEF",
"BX c gray94",
"VX c #F1F1F1",
"CX c gray95",
"ZX c #F3F3F3",
"AX c #F4F4F4",
"SX c gray96",
"DX c #F6F6F6",
"FX c gray97",
"GX c #F8F8F8",
"HX c #F9F9F9",
"JX c gray98",
"KX c #FBFBFB",
"LX c gray99",
"PX c #FDFDFD",
"IX c #FEFEFE",
"UX c white",
/* pixels */
"8 6 $ 3 j $ 1 2 q 0 5 n U x 6 B u $ u N i 9 k V g 8 p j 6 6 * i : 0 j Z y 0 e 9 a 7 : 1 9 6 e p = j e 3 i p d c d t m u r a $ g ",
"9 < X 5 8 7 p w 4 3 6 m I r h d   2 g h k B e : y 2 d 8 . u a d e q 7 e 5 s V p > w t ; 8 * t c 5 1 u i i p g e 2 w 3 < x - t B ",
"0 8 : 6 , t e e 9 > y s a u b O e g h d p p . < = r x 2 f H P y f r @ + X   < g $ @ 8 6   + * i 9 5 5 d L l V s q i r z y d D 8 ",
"j : 5 * O 9 z 1 0 t p y 4 z 7 4 F e e a e o . , - f d p r < C 2 $ n : . @ X @ > e O : w $ > 2 > > c j t a r i B r G ~ S D l s 5 ",
"g 6 * + > 1 y a y p q q i e < k 7 6 w e & & p G ^ h i j X   h 5   ; j ,   X & O d : % # + 4 y 7 q z k c D b 7 9 N D K M T w 8 0 ",
"5 q $ # : > w d 2 3 u j a % 4 : O 6 8 ; h Q ) ] P m Z J h 7 p n o   % u q * * # 1 5   X = s y 8 8 0 t q g k 0 f d u s a x s z 2 ",
"2 1 & % + 9 7 , a q i n , % , @   : 2 C W T _ Y ^ n l h x y & Z z $ O O > e , O # q . & y y M s d d d w d 9 e V 7 y V K 0 4 N q ",
"6 3 = % . > i q 8 l N , # $ - * < , C Q ~ W A U n c j m d C > 2 g 7 + $ % o ; - > >   3 r y z r c c Z p h 2 g D = v b D 7 $ l Z ",
"< 2 , @ $ % 6 i z l 4   . ; e p : b c Z ..~ j A j B A k U z < = % , u s : $ * l D 0 + < w i e , w p 6 w f e N 2 - T m B 6 $ n T ",
"* * : o O @ - 8 r * - 9 p 7 4 . > [ A Z U Z L Z M Z h m D e & O o o ; t p e < v Y h X o : 3 * . $ < $ . , d d - q C / b u u e x ",
"# o - - $ < 6 y b k t , < r g e B X.W R n Z N v M x g i N z : > o $ * o - - $ ; i = - 8 + + # & : % @ s N 9 k d g b ^ i @ > * : ",
"+ o o # + : , 4 - +   % S { U v B ^ ' ) D ) _ T ( C p i F z 6 > . @ $ % $ # , $ * 2 # e = O $   X * u V u G n Z 6 k Z 4 % = , : ",
"X % . X   . . & @   - a ~ ( F Z j h K N K I ` ~ N T I S c M < , #   @ & # : < @ $ -   , 2 $ $ $ i B w O y a s C * N h : 3 = o o ",
"@ # O . . O 7     X 4 s P ] ^ ! M N H I L E m > O ; F J l a M 7 -   @ ; % # 1 * @ > : ; ; > & h c 3   r b $ f H % s C $ - $ X X ",
"O + X   : > m i $ X $ 8 b U { [ m n C G b ~ %   5 4 F 7 + u j B 2 o X $ = O * 4 & 4 4 % < - 4 s , X , a +   a p .   j 3   . X @ ",
". o   . + r q 5 t 2 $ 2 B R Q I s b W n t Y j 9 7 K / : : t F v n ;   o & O X ; 3 * q 1 % t r y . , B $   O x 1 X 1 0 k   o @ : ",
"  ; l * ; e h e ; # O O = f a r p l S Q T x A c c J R h 3 % 0 H h > $   X . X + * O > w 9 9 4 y : y q = @ 0 A # $ @ 1 f X X $ % ",
"  3 ] U x y 3 , > %   X & + 1 5 7 a < d * , 0 e y j Y M 5 9 5 B J > 3 o             * & > = 7 8 i 8 $ , $ 8 S &     - ,   o $ $ ",
"> 4 M p | R I p 0 > * , * = = & w C 4 8 : , < d $ c U h , 6 a M z @ y 1 o # i 8 i e 8 $ . o X 5 v &   . : q 6 O %   > <   O : , ",
"3 j v y U D A Z H b D S % : e 3 h Z u l 2 s u f x H s g 8 s u j 3 = f g r $ 6 w w 9 - % O @   w s : : . ; c @ X 1 5 2 @ . O 2 > ",
"y 8 i p c Z / I A B D V e % , ; x n g d 0 j m p 0 x e : t M C n z q i n g 5 = 1 0 q , > o O - m 5 . : $ y t   < + < 4   . o > , ",
"-   @ 2 4 0 w 3 r p M b j < ; e m v x m l n h w 8 p b d k V H c K D g N t u q < 6 1 # 1 y e w s 7 a p r y ; & 4 d $ + > . + ; * ",
"  @ e 4 O i @ * 6 6 2 h b r 9 u s V p v j 9 e i a S ! m M P K h C j D m 8 1 r w e * 7 C G N g h l v c p 0 3 - @ 6 d $ 7 u . + ; ",
"O & N A f b 8 < w 1   9 n 4 v e g S e c a & 7 A G M W _ S D n Y J H B I s * 1 7 w 8 b I L H F j u c P b u C a     , l > 6 u @ # ",
"v i j U A N G a 7 =   g L r e n k A u d 2 @ : N P ) Q H Y K m N Q ~ L n R 0 t 9 9 G Q ~ _ ^ _ N 1 L ..H r W I ,   = 6 a 6 = f 2 ",
"C P L f o < Q L 8     j T N ; s 6 A x q ; % 5 M I ^ N G E ) ~ ! E ~ ) Z T ! c N A A P R Q ^ | Z S _ ~ D A _ L A O + @ & v a & j ",
"  : F d   m U E C C j x x 5 , 0 C S , 3 # % f ! I W M ^ K F E ) [ S U ' P a D v c g L I ) ' ) G ^ Q ) T ~ _ P ' 0   O @ $ f x @ ",
"    7 b k ! h g l m { N 7 > 6 0 y T 6 $ * 2 m / G E W ( ! D P P ~ L P P R h r p k ^ ~ | { [ ( Q I W { i D J R ' t   * * & + i B ",
"$   - S R 0 X @ 2 O D = - : 5 7 8 V y o p 5 c R u G C B R ) { h E z V E U G l g k x z W H } ~ G W / / p C Y / Y q < o % & *   < ",
") K S L a       # 7 G u 3 1 7 5 7 u p v r 4 l J J D D S N ^ I b B S K C Y z t c V F J T W [ R E Q Y c v Z ! F ) i r X   +   * s ",
"R T ] ^ Q g w f M ( ~ a 2 0 q 4 5 q 4 l 7 y f b ..L N b a K G J B t D m L r @ r h H R m { ) H [ I K z U N L S U G b h @ . 5 N i ",
"d g 0 j ! } E D P H n 9 : 3 3 # , B r c 7 z D J A I ' Q v z ! T n N b Z d -   b h G / / ! J T ` ] D N R j N J m V T R x v A 3 # ",
"K b N A ! T P P N v V u ; < w $ ; v a r D q t 7   o 8 j g j  .' N ^ I c 7 o   7 n Z ( F e F A n P J h I H ~ ^ C Z E h l n 3 u 5 ",
"Y R ~ ! T v V N 1 0 n u @ + 5 > j t a 8 u u w : O   O $ 6 A l y B Q ^ D d O @ , g S E z B W F D B B Y _ L R E h e C m 6 j t 8 Z ",
"3 k 7 w a f m q 4 t j z @   & C n e c < q z H 1 # X # 6 g n t   4 % t x , % & = m S v K J C / T W R I R G L N D i r e g M e 0 6 ",
"6 > 5 6 i j d Z f y s V w o r x s f q 7 d , d p s d a g d n 8 + &   % > w < & % H ! ( ( H H W W Q  ./ I  .b 3 N 4 D < q R n w 8 ",
"N e i t t n i d s 4 5 b H 0 6 e s w a i 3   = c t J L p e P p > X   q S 6 * > 2 G h F D W T Q Q j v j c I 8 k G w y e + e B a M ",
"c q g g p L u * 9 : > p h S V k c y i w   # d C : 8 L -   V v A n H D v 2 & < * 7 . @ X O f S &   4 $ o S G E M r H b e 7 k i i ",
"7 g f d f D x 5 < < 1 w A b P E r < f & o 9 n g 8 u C ; . h m i Z u z y = : y & 5 o X     h J -   n 2 . A l b V s s C y y r u a ",
"3 r w v t w h q 8 , 8 y E Y B W J u # + , r x a 6 4 H M i N C q + 6 J 3 = q s ; w b s y f M M y : + : G Q H s r y n v N < < u p ",
"3 9 s D w q C l t 5 s 5 n [ _ M Y C M y a < B y 7 9 < p B f g * @ M w 7 , 2 p t # q r Z / u ; m K J U n r e r x % j I N q 3 w d ",
"r h z 3 y t h x t p u , N Y ( s x S I S f i z j 6 q * s * # 3 a n T > q t r i w 1 * $ # a 7   d W H T & $ 9 u b 7 9 g l l 5 3 q ",
"p r S I > k h P 7 b 6 t L ! B j r f B G s & - x r < *   # 6 @ < ! A : 7 m B N g 7 2 : 6 4 k 4 u S Z D * 2 c a i 6 i > 9 l 1 , 5 ",
"3 f i i e u u r g a 5 m U ~ m 5 6 2 1 B u y : p u 4 4 = > 1 u z M % < e 7 w g w 6 - 5 * h Z G L K s g d e g i 9 7 2 w e l - 3 - ",
"= i B Z N O e b a % 0 L F R e $ 6 2 9 < j 7 6 w t w q 1 V B K 3 ; p 8 j 1 0 0 r 2 1 6 - 3 4 5 y 4 p 6 x f & 5 6 y 3 9 q d 2 # O ",
"; = N v g X - r & = v D v d < X 3 , a $ 1 v ; 3 6 z z u h w ,   X - k h 5 4 u w 5 @ = 1 ; 5 O - 2 y 4 y F 7 - - e < 7 q > ; o   ",
"$   x m q o . w e w A Z U 2 X 3 3 2 r r @ 8 h 9 w f f <   o * & 5 8 s s p q 8 w r 2 9 * # r s e 8 e r w j 1 O @ % $ - : 2 0 l l ",
"r e A Z r @ @ , 1 * d v r n 7 , , p > 1 p 1 $ 6 g u 9 0 # & $ % > w m c 8 a N h c N z S k b L m e k 9 - 9 $ 9 9 7 q d j C j w 1 ",
"N T K V B ; o   @ e P H % = S k X o c 0 ; 7 5 = 1 9 p f i e u e y j f 1 0 n C 7 X X < d x u C h   , ; ; 4 9 % 5 9 0 5 3 %   , v ",
": k b c v 8 d 0 + Z ..C > . & C V 9 ; j q # - % q 5 4 r z d a 7 1 4 4 t y b S s t < 7 % X   1 b - 3 5 1 O n 3 # : & @ w s f g < ",
"a 5 9 d u 0 4 m s K ! z < % 7 a ^ Y H c h r 7 > > < < s y e 9 % , t 0 1 p K Z r 4 z f l q 6 e v k f N B v c V N h z x Z x :   6 ",
"V < 8 d 5 M d d v i M k v F R v z v b N T ) P M j 1 9 t i q p 8 0 j h j d - d q f f 4 % 8 6 ; d f l r * %   & > X + O o > > j Z ",
"j - : i 0 9 t 5 b h 6 3 > m Y B F ( c x Z n R e m x O 8 , ; 6 q r 0 ; o   @ c e = 3 y u y t p u v M r 9 y d x q 8 q 7 x S M e $ ",
"s 1 - i 8 8 - - k l u j N Y z J F n j y M k y n j U C 1 w 4 - - @ % * : v I h 2 1 : - 9 8 < 4 q B I B s y 2 u p y c e 4 2 $ : r ",
"2 ; ; d h w e 3 V e >   ; R B N L H A z z c n F T a k j   $ ; q g d l l n > O # ; , , 8 t f y 7 6 b K l i u 5 5 d 9 > ; r l u ; ",
"i 2 # j s s < = x Z v 5 a / R n Y n k N m V n n A T v 6 y > -   & + o O < > 1 , -   + . $   # 1 M L S g 6 a M B D c s b t , O X ",
"8 t a N 2 0 * v n 7 2 ; 3 e = > % = - - 1 < 3 < @ e / n O b d # ; ; 0 7 9 G s   : 7 , : = ; g k n Z 8 5 L f 7 ,   o - > ; O @ # ",
": 9 g 5 - 8 k m F r     : - . = % , - ; & > r 7 2 = - D k - V r + 1 0 1 6 M 6 e : 1 q i p f u a l e n : = s B z , . O + # @ + O ",
"= > 3 ; , i K f Z t   o < 0 0 * 5 0 t t e i p 5 0 4 > : n B 3 a l 5 $ 7 J h   7 h f 6 . = 9 b p z x 0 b p % 9 v b o   + % . $ 7 ",
"> 3 7 1 < i G m g 8 * . 6 4 3 , O . : & , a d 8 r 6 < - ; A N + 5 H a < k = & + o i i y 6 t 5 x r 1 M 1 6 c r 3 q % # O o X = 8 ",
"2 > 6 > 5 S x 3 t 2 1 O 6 i ; 2 9 6 w 8 i j 5 r i t w $ ; 9 v l X - V 0 ,   # > ; 4 4 < 5 ; 6 z 5 x j b 3 X ; 7 f f u % : , 8 e ",
"4 1 8 = r u * ; 5 4 : 3 l i 0 r < * : ; 5 c g 6 g , d 9 # - 4 a g ; > m 3     X $ $ ; 1 , > p m b c v * f s : O #     & 0 y 0 % ",
"; < 2 , e : 3 4 % 4 6 2 g e t e j 9 l z r u e 7 : j , p 6   # > p c : - M s @ o - : 4 = ; & : 9 < 3 5 q + : r s j c g t t # @ = ",
"1 1 6 < 6 * O > w w 9 d t H G s x Z y j 0 e y 7 2 < t % a 2 @ : 0 s F 5 - v F 1 6 & 1 - & X # w u u - 7 z u * @ * y < * + + : 1 "
};
