/* XPM */
static char *cabe74d0f0ef4903984a2e49030c1e626MPoU52QG5874opD[] = {
/* columns rows colors chars-per-pixel */
"64 64 256 2 ",
"   c #160C19",
".  c #1C131D",
"X  c #15111E",
"o  c #120711",
"O  c #22131C",
"+  c #2C1A1C",
"@  c #271718",
"#  c #331C1B",
"$  c #341B18",
"%  c #280D12",
"&  c #3A241C",
"*  c #2E211B",
"=  c #1E1622",
"-  c #251B24",
";  c #2B1D24",
":  c #271926",
">  c #341D24",
",  c #2E1A33",
"<  c #2D222A",
"1  c #342322",
"2  c #33242D",
"3  c #3B2827",
"4  c #2D2636",
"5  c #372837",
"6  c #3A323B",
"7  c #353233",
"8  c #47291C",
"9  c #542F1C",
"0  c #4E182D",
"q  c #6E1531",
"w  c #4A2D24",
"e  c #452A28",
"r  c #4A3328",
"t  c #573728",
"y  c #432B37",
"u  c #493737",
"i  c #583A38",
"p  c #562830",
"a  c #66392A",
"s  c #653D3A",
"d  c #703231",
"f  c #58241C",
"g  c #574339",
"h  c #534036",
"j  c #77462C",
"k  c #67463A",
"l  c #764839",
"z  c #77533B",
"x  c #684630",
"c  c #392747",
"v  c #2F3443",
"b  c #313544",
"n  c #343945",
"m  c #3B3B46",
"M  c #393C48",
"N  c #36274D",
"B  c #2F1B46",
"V  c #432B48",
"C  c #473848",
"Z  c #5A3A45",
"A  c #472957",
"S  c #532B5D",
"D  c #493456",
"F  c #533A5B",
"G  c #563959",
"H  c #532C42",
"J  c #673846",
"K  c #683B57",
"L  c #702B48",
"P  c #593B63",
"I  c #4E3063",
"U  c #623E66",
"Y  c #733A6E",
"T  c #661D4C",
"R  c #3E414A",
"E  c #43424A",
"W  c #4B4648",
"Q  c #584748",
"!  c #4A4B51",
"~  c #584955",
"^  c #5C5455",
"/  c #585458",
"(  c #5C514A",
")  c #664845",
"_  c #744944",
"`  c #695249",
"'  c #775747",
"]  c #664656",
"[  c #63595A",
"{  c #675757",
"}  c #785A58",
"|  c #754356",
" . c #7C635D",
".. c #77655A",
"X. c #6D615A",
"o. c #5B4267",
"O. c #5C4775",
"+. c #5B5B65",
"@. c #634165",
"#. c #63426B",
"$. c #6B4868",
"%. c #764A67",
"&. c #664A77",
"*. c #784C77",
"=. c #79537A",
"-. c #715768",
";. c #796864",
":. c #6E6B73",
">. c #5D606C",
",. c #8E363C",
"<. c #8F123D",
"1. c #885537",
"2. c #8E4B34",
"3. c #AF5237",
"4. c #A66A3C",
"5. c #951145",
"6. c #AD1B50",
"7. c #8E2F4A",
"8. c #AE3459",
"9. c #B3306B",
"0. c #8D236B",
"q. c #D62A50",
"w. c #E72E57",
"e. c #D22A6D",
"r. c #EF346E",
"t. c #C71B46",
"y. c #865448",
"u. c #96584A",
"i. c #845C57",
"p. c #94504F",
"a. c #A85948",
"s. c #AF5450",
"d. c #83625C",
"f. c #88675B",
"g. c #996558",
"h. c #926B4D",
"j. c #A66555",
"k. c #B86A57",
"l. c #B36F50",
"z. c #855967",
"x. c #875777",
"c. c #93516F",
"v. c #AD516C",
"b. c #866963",
"n. c #966965",
"m. c #897366",
"M. c #957868",
"N. c #8F6B77",
"B. c #AF726C",
"V. c #D15657",
"C. c #C66B57",
"Z. c #C77559",
"A. c #D87859",
"S. c #D06C4F",
"D. c #E67354",
"F. c #CB546F",
"G. c #F0516B",
"H. c #D67B64",
"J. c #D16F6A",
"K. c #EC7270",
"L. c #E25552",
"P. c #B3865A",
"I. c #9D826C",
"U. c #9B8678",
"Y. c #8B837A",
"T. c #AC8B71",
"R. c #CC8B54",
"E. c #EE835C",
"W. c #D18C6C",
"Q. c #E88765",
"!. c #F2906D",
"~. c #D3AA6F",
"^. c #EEAC77",
"/. c #E7A45C",
"(. c #F3CD75",
"). c #684D83",
"_. c #785687",
"`. c #6E508A",
"'. c #5D4882",
"]. c #783B82",
"[. c #A03D99",
"{. c #F1398A",
"}. c #CE31A3",
"|. c #91588F",
" X c #976892",
".X c #AC7890",
"XX c #9357AD",
"oX c #AD59AA",
"OX c #9A6DAA",
"+X c #AF72AF",
"@X c #A35189",
"#X c #F34BA8",
"$X c #C86FB2",
"%X c #DE6792",
"&X c #B86EC9",
"*X c #BB5EC7",
"=X c #D778DA",
"-X c #CC6ED0",
";X c #D97BE5",
":X c #D675EE",
">X c #E972EC",
",X c #FB64D7",
"<X c #E632D3",
"1X c #AE918D",
"2X c #B987B2",
"3X c #A69893",
"4X c #CC948F",
"5X c #F2978C",
"6X c #D0AF94",
"7X c #F9B989",
"8X c #F0B28E",
"9X c #C989AE",
"0X c #D4B1AA",
"qX c #F7B6AB",
"wX c #F880A0",
"eX c #FAC59A",
"rX c #F6D494",
"tX c #D0C3B6",
"yX c #F7CAA7",
"uX c #FCD6AA",
"iX c #FCD9B7",
"pX c #EBD0B7",
"aX c #FCE7BB",
"sX c #FFF1AE",
"dX c #D8CA93",
"fX c #B98AC6",
"gX c #CE8CD0",
"hX c #DC8BE4",
"jX c #E888EA",
"kX c #E696E9",
"lX c #E986F6",
"zX c #EB99F5",
"xX c #F38FF5",
"cX c #F5A8F4",
"vX c #FAB8FA",
"bX c #EDADEE",
"nX c #E0A0DC",
"mX c #FBDCC4",
"MX c #ECD6CB",
"NX c #FDE8C7",
"BX c #FEFDCB",
"VX c #FEF5C7",
"CX c #F8EDD8",
"ZX c #FEFDD4",
"AX c #FDF9DA",
"SX c #EBE6D5",
"DX c #F9C8FA",
"FX c #FDDCFC",
"GX c #FAD4FB",
"HX c #EBCBEC",
"JX c #FDFCE9",
"KX c #FDE6FC",
"LX c #FEFDFD",
"PX c #FCFBF5",
"IX c #ECE7E3",
"UX c #DAC6C6",
/* pixels */
"6 b b v v v b n v , 5 B 6 v v b b b n b m b m 6 E 6 E W W Q ; . O - + 3 ) n.J 1 # 3 y e e y e i u y p ) ] ) Z g W W h W h h R 6 ",
"n n b b v b b n v c , 4 v v 6 C n b n m m M m C W C W Q ` u . - -   & z.N.u O + * + + + # # + $ @ & i _ _ ) Q g W h W h E h R h ",
"m m b b b M M b v 5 4 5 v v v v b n n m R E m E W C g g ) > . -   3 i.Z ; - : , : < : , > # # u } ' ' l _ k g g h i u u u u h 7 ",
"n n n b v M M M n b 5 4 v v v v n n m E W u C Q Q ]  .2Xx.o . . O y > @ < : 4 , , , 4 B < 5 *.-XcXnX9X.XB.N.N.N.N.b.N. X.X.X+X1X",
"m b n n v n n n b n v 5 c v b b M M E C (  Xx.c.+XnXvXvXY $ ; - . O $ > ; y 4 c B B B N ).OX&X&X&X=XzXcXvXvXvXvXDXbXnX1X1X3X3X1X",
"m n v n n n n v b b b c 6 v M M C E W -.gX9X.X.X9XvXkXc.8 t 1 . O + + > e 5 5 c B I `.:XlXlXlXlXzXkXkXcXvXvXvXDXvXDXDXGXDXDXDXvX",
"M n v n n n n v b b n n m M M M C E ' =XkXkXcXcXbXhXp.q t x r - O @ 3 e y 5 c A [.:X>XxXlXzXzXxXzXzXzXzXzXkXkXhXhXhX:X;X:XlXlXlX",
"R M 7 v n v v v b b n M m E E W W ] @X-X-X$XoX$X$Xv.q % t l z ; : y H G P `.OX-XlX>XlXlXxXxXcXzXDXFXGXHXbXhX;X;X=X-X-XhXzXzXzXlX",
"M M 4 5 n b b b b M R n R W ( W ] Y ].XXoXoXoX[.@X9.q L z e ' 3 V U '.'.`.OX-X:X:XlXzXzXvXvXDXDXGXFXLXLXPXKXDXbXkX=X=XjXjXxXlXxX",
"M M 5 v n n n n M M E M E ! Q W Y I P Y oX*X-X|.8.0.5.k h 2 3 1 V O.O.XXOX-X-X>X>X,X>XxXcXvXFXLXLXLXPXKXFXGXDXKXFXbXhX;XjXlX>XxX",
"M M 2 6 M M R R R R E E E E ( ] S I S S S Y Y K 7.8.' 3 : : : , V O.XX+X-X-X=X=X>X>X>X>XlXzXDXKXPXKXFXFXGXFXbXjXvXKXbX=X=XlXlX>X",
"M R 2 6 R R R R R R E E ! ! ( ! A S S A S T S L p.y.y 2 u i Z Q o. X2XfXgXhXzXbXzXvXvXxX>X>XkXvXDXKXFXKXFXFXKXbX:XlXHXgX&X&X:XlX",
"R R 4 5 R R E R E R ! ! ! ( ^ A A S S A S S I _ t 3 u k ) k k _ .X2XOX X X+X-X-X=X=XkXbXxXjX;X;XbXFXHXDXKXFXGXFXGXzXlXzX&X*X&X&X",
"R R ; 6 ! ! W ! ! ( ! / ~ ( ~ B A A A A S I P s 2 s _ k s k k g.yXNX0X1X XoXoX*X-X-X=XjX=XhXjX=X=XbXGXbXbXGXKXGXFXKXGXzXnX+XXXOX",
"R R : y ! ! ! ! ! ^ ~ ( ^ { C B A c N A S I c > s _ s ) k k l P.pXNXNX0X.X.X+X$X=XkXDXKXFXcXhXgX=X-XbXDXbXxXcXGXFXGXFXFXGXbX&XXX",
"E C : 5 ! ! ( / ^ ^ ^ [ } -.V B B A A A A A 2 s s s _ k s k ' W.VXVXaXaX6X Xc.N.c. X@X|. X.XgXbXbX&X*XHXDXhXjXjXbXGXGXGXKXLXFXfX",
"R R : 3 / ! / ^ ^ [ [ { { { B c A V c V I c i s J k s t k y.u.j.R.uXaXNXaX6X Xx.%.K K K J p.c.4XHXnXfX&XHXbX$X=X>XjXcXDXDXGXLXKX",
"! E - e / / ^ ^ [ ^ [ [ { C , c V B N I A y s s s r e _ u.u.u.u.2.Z.aXZXNXaX6Xz.%.%.} y.j.k.j.J.pXOXfXfX+XHXbX.XOX&X:XlXcXDXFXKX",
"! R . y X.^ / [ [ ] ^ [ { V 4 5 , N I D c p s l s + l k.g.u.u.2.a R.VXAXVXNXpX4X.XW.k.k.k.p.g.W.MX|._.fXgX+XHXnXXXXXOX&X=XjXcXFX",
"/ R . y ;./ / / ^ ^ [ [ [ B 5 B N S F A 5 i s l p + l Z.Z.2.a 8 d ^.ZXAXVXBXVXiXyXiX^.Q.k.y.g.!.0X|.`.|.2X2X+XHX2X|.XXXXoX*X-X>X",
"/ M   3 :./ / / ^ ^ [ { D 5 c c D D D c y i l _ p w j.d a $ % % l.sXZXVXBXBXBXVXVXBXeXQ.A.a.k.5X0X&._._.|.+X.X2XnX_.`.XXXXXX*X*X",
"/ V   2 ;./ ^ ^ [ [ [ [ C c c N D S V c V s _ _ i a H.w % t t a ^.aXAXBXBXBXBXBXBXJXNX^.Z.k.J.qX.X*._._._. X2XOXgX2X).`.`.XXXXoX",
"+.m X ; N./ / [ [ ^ [ ^ c c N D D P c V y s _ y.f d s.% s j.s k.8XVXAXBXBXBXZXZXZXJXPX8XH.C._ 1X-.=.=.`.=._._.OXOXfX X&.`.`.|.XX",
"[ 6 . - ;.[ / [ ^ ^ ;.~ c c M D I P c A y l _ u.w l p.0 F.j.y.k.8XBXZXBXBXBXZXZXAXJXLXmX!.!.yXM.5 6 m ~ _._._.&.`.3XgXOX=.*.|.|.",
"+.5 .   N.>./ / / X.X.M c D D F P F c c y _ y.y.e l k.5.9.v.j.u.Q.aXBXBXBXBXZXZXAXJXLXPX8X5XJXCXc.i ~ ~ o.`.).).'.'.OXgX2XN.x.x.",
"u 2 -   N.+./ X.X.;.X.c c D D F o.F c D y _ y.p.p.k.!.s.v.k.j.k.W.eXaXBXBXBXBXZXJXPXLXLXPXiX8XmX6Xg.u Z m O.`.).`.)._.2X2X2X.X|.",
"1 , - o 3X:.[ ..;.m.{ N D D F I o.F c M 5 _ y.u.g.j.B.k.l.j.g.k.!.yXNXaXsXVXBXZXAXJXPXLXJXPXyX^.NX6X| _.=.&.).).'.).&. X2X X9X9X",
"3 4 : o m.z ' f.;.m.~ A M D D F o.P c D 6 i _ u.p.u.p.g.g.j.l.k.W.7XaXaXaXVXVXBXAXJXJXPXAXAXPXmXqX4XJ -.).).).).).'.).`.+XOX_.+X",
"3 4 : - o 8 9 j ..f.-.D c F I o.#.o.D C 6 2 s g.p.u.u.j.a.j.j.k.R.!.uXaXaXVXVXVXZXAXJXJXZXCXCXPX8Xj.s Z &.&.&.).&.&.&.O._.2X&.>.",
"3 - @ : O 8 & 8 9 j f.| N M ! o.#.P V D C 5 Z g.p.u.j.j.j.j.l.k.k.Z.7XuXaXaXNXVXAXJXJXAXNXNXNXmXZ.N._ u o.&.&.&.O.O.O.O.o.OX+XO.",
"w # 3 # 1 8 3 & & w w z n.-.I F &.P D D V 6 y d 2.a.a.j.k.j.k.k.k.Z.^.eXyXiXNXNXAXAXAXCXNXmXCX8XB.i.) u 7 o.&.&.O.O.O.>.o.O.2XOX",
"O @ 1 > 8 e :./ & & w r a j.3X;.o.C $.~ C V y L p.p.a.p.j.Z.Z.k.Z.R.!.eXeXyXaXNXVXCXCXNXiXNXmXJ.g._ Q C u W o.O.O.&.Q h. XI >.2X",
"  O 1 * + C :.+.3 & 8 t 8 9 j Z.n.y %.#.G C y _ v.C.Z.C.a.C.Z.k.C.a.Q.8XeXeXiXNXNXCXNXiXmXNX6Xa._ ) C ~ W u C o.~ i & z T.P o.*.",
"q # + + o ! :.+.r & 8 8 8 9 9 j d ( .XG $.H V u.W.C.k.C.Z.C.k.k.s.3.Q.7X7XyXiXNXNXNXuXyXNXpXj.2.J Q ` ( ~ Q u y e 3 $ z B.P P ~ ",
"5.7.. * 5 >.>./ 1 r t 8 9 9 9 2.p { 4X*.@.#.C J k.j.j.k.C.C.V.8.7.k.R.7X7XyXmXNXNXyX~.eXiXZ.j i Q u ~ ( ~ Q Z u 1 + @ T.B.K K K ",
"B.U.. u N.+.>./ o   & 9 & 8 9 a > a 4X@X$.~ o.V y s p.a.G.G.8.<.k.S.A.7XyXiXNXNXiX5XZ.^.8X2.w r Q u u ( Q ~ Q Q i 1 1 ^.j.K K | ",
"M.n.< Q ( ! :.1Xg < o * 8 8 9 5 + d ^.x.|.D G G S p _ p.F.<.7.s.A.A.Q.7XuXNXiXiX8XA.Z.Q.l.f 8 u u u u Q ( ( ~ Q Q y h ^.B.K K K ",
"d.b.u h u / Y.Y.m...h . O 9 r , % d E.T.x.&.C G G H p d p q V.A.A.A.E.eXiXiXNX8XZ.S.Z.C.d 8 w r t r u h h W Q ^ ` i z (.MX*.L K ",
"d.d.( 2 r +.3Xm. . . .} >   5 : % a 3./.z.*.~ G D G D J p <.A.H.A.D.E.eXiXiX7XW.Z.l.l.2.8 8 e w r h u u 7 h Q ` { u z ^.IXIX{ > ",
"g.f.' 1 r ;.1Xd.b.d.} X.b.y : % O 9 2.s.W.*.&.~ D D G G T p.A.S.H.D.!.7XuXyX!.A.a.3.S.a @ % $ & r h g x k u u Q { C z eXIXLXIX0X",
" .d.r < r U.m. .d.d.} { ;.{ + $ + a a d S.4XY $.o.F D P F Z a.S.H.E.!.^.^.!.Q.p.J i d f % o @ 8 x x z 1.P.R.I.( ~ u x ^.AXLXSXSX",
"f.' 2 = r T.b.b.b.n.} { } } > $ $ t a 9 2.H.1X| $.o.I P P G J C.K.!.!.!.!.A.p.F G G H @   8 x x x h h g z h.l.P...6 3 /.NXLXSXtX",
"f.i.: = 5 b.b.b.b.d. .{  . .; e Z O t 9 a a Z.4X| -.P P P U G K K.!.!.!.k.Y P ] K G H O 9 x z l x g x ` ' ' z z h.` @ P.uXPXCXMX",
"n.` - < y i.b.b.;.z. .{ } } 3 } N.Z $ a 9 a ,.~.4X| $.o.o.U U U | H.Q.s.K U U U G G > w i g z i.f. .m.;.m.m...x x 1.x x ^.JXSXSX",
"B.g * 1 u z.d.} } z. .} } } } b.} x.H w j j 3.D.mX2X_ &.#.#.U U o.] %.P U U #.P P V w i i k m.T.I.m.;.m.;.I.T.I.' g z h.P.CXJXCX",
"W.7 1 < i i.b.3X1X}  . .} } i.} i.} x.p 2.2.3.D.E.iXB.U #.&.&.&.&.#.U U U U U P F i i u ) m.;...f.f.f.M.I.I.I.I.I.m.x ' R.dXPXJX",
"n.< 3 ; Z  .m.IXLXm.z.b.} } i.b.d.} } K a 4.3.l.E.^.MXz.o.P #.$.Y #.#.U U P I I D u Z Q m.;... ...X...m.I.I.I.m.I.I.m.g h./.MXIX",
"i.- e : i m.;.1X0Xg.2.f.i.} i.d.g.i.} z.H 3.S.A.E.!.iXUX| @.o.#.&.#.&.U U U U U G G G } ;.b. . .f.m.m.I.I.I.I.I.I.m.I.I.` j 6XJX",
"g - 2 - e N.` j 4.~.~.0XM.u.i.i.g.z.d.i.Y ,.A.A.E.E.yXLX1XU U @.U #.#.U P P F P G U @.U -.f.f.M.M.m.m.....X.......X.X.X.3X3X..tX",
"2 : - < z y.s l.sXdXP.yXa.3.W.j.j.z.f.i.;.7.3.S.A.E.5XLXPXc.#.#.#.P U #.U U U G G G G G G ....{ { ` { X.X.........I.6XpXZXPXY.h ",
"3 * < t i i _ 2.R.l.u.2./.rXuX6Xs.j.n.i.b.c.9.C.S.D.D.qXLX0X%.#.#.O.U U U U @.U U @.U U C [ ^ { { ` X.X...;...U.dXpXpXSXSXSXY.( ",
"3 - < t e ; 3 j R./.k.H.rXP.l.3.R.T.g.n.i.Q @XF.S.D.D.!.mXPX.X%.#.#.#.#.U U U U @.U %.G 6 { { [ X.......m.U.~.dXdX0XaXJXIX3X6X3X",
"* . + 3 < < r 2.2.,.p.l d 2.d R.rXR.n.b.} Z K F.S.S.D.D.D.qXHXc.=.$.$.@.U U U U @.$.#., 6 ;.X.f.m.m.I.I.I.T.I.x 6XaXSXAXPXIXY.Y.",
"- - < 1 - - 3 j a p & $ x W.a.^.!.4Xg.} } ) Z v.V.V.J.S.wX,XqX4Xx.|.x.=.=.*.%.&.*.U > + > r g ) ` z g h h 3 7 * ;.aXBXAXJXPXPXPX",
"- = - < - - r t 3 3 e 2.2.1.l.S.8XCXj.p.` Z ) c.s.V.K.D.wXD.5XpXn.z.=.*.*.x.=.%.u % @ + + @ % $ * & 9 9 9 h h g 7 ( T.dXpXSXIXJX",
"< + = - - - 7 < 2 2 & z 1.w p 3.W.qX5X4X4X%X%Xp.,.K.V.V.S.S.K.qX1Xi.z.n.z.%.J 0 0 0 0 $ # & & 8 8 t r 9 x x x g z z z ..I.I.I.I.",
"- < = - - < < < 2 < r x 1 3 y 8 0 d p.v.J.%X7.L 7.F.V.V.V.C.K.K.0Xg.` y.T.L q 5.5.5.5.q 0 % % # 8 & & 9 x x z z z z z z h.h.P.~.",
"3 3 * * - < 2 2 2 < r 3 5 y > > > 0 0 0 p 0 d 7.L {.%Xs.V.L.%XG.8XN.s j h.J.5.5.5.<.<.6.5.<.q % & * * 9 r t x x t r r r r 9 t x ",
"5 . . * 1 2 < < 2 < ; 5 y 5 5 > > 0 0 T T T L L v.F.,XF.a.V.K.L.5X6Xl y.d P.G.t.q.e.r.{.t.6.w.5.& & * & 9 r 9 8 x x h t t t x z ",
"u X X X . * 3 2 < 4 4 5 5 2 > : > , H T H L d 7.v.e.,XgXs.s.G.L.K.HXu.u.u.d W.r.r.#X{.6.5.q.e.r.7.& * * 8 t & 8 x r t x x x x t ",
"u   + * . X - r 7 < 4 6 6 2 2 : : > 0 T q T 0.L 7.9.#XxX.X,.L.L.V.mX3Xz g.2.h.!.w.w.t.q.w.r.r.e.w.q & $ 8 9 & x x x r 9 z 1.4.1.",
"u   + . * 1 X . w 7 4 6 2 2 : Z ] p 0 0.0.oX,X0.7.7.{.,XwXp.V.G.3.%XIXh.h.h.2.W.G.q.q.w.w.r.#Xe.{.6.$ $ & t 9 R.R.x 8 8 z /./.~.",
"7 o = . X O * X O r g 6 < < 5 n.B.n.c.oX<X<X}.0.L 8.9.,X%X,.%X,Xq.K.FXT.u.h.u.j.!.q.q.q.w.#X}.e.r.e.0 @ 8 1.j (.(.4.x 8 x P.R.P.",
"1 X . -   . ; . = O k u < - Q B.n.n.n.B.c.c.}.}.T 8.8.#X$X,.J.#XG.%XvXpXh.h.4.3.~.L.q.q.r.#X#Xe.{.e.q @ & 4.4././.R.z 8 h x z x "
};
