/* XPM */
static char *d22abdb4a7784a21cadfed92a619ad0b38ibBAeGHTEhGjlB[] = {
/* columns rows colors chars-per-pixel */
"64 64 256 2 ",
"   c #0D0A06",
".  c #0D0D09",
"X  c #090503",
"o  c #1D0305",
"O  c #130B06",
"+  c #130D0A",
"@  c #1B0D0A",
"#  c #190705",
"$  c #15120B",
"%  c #1B130D",
"&  c #1E190F",
"*  c #1C1511",
"=  c #1C1A13",
"-  c #171815",
";  c #10100F",
":  c #230305",
">  c #2B0405",
",  c #2E0509",
"<  c #240D0A",
"1  c #290B09",
"2  c #330506",
"3  c #34050A",
"4  c #3B060A",
"5  c #330C0C",
"6  c #3C090B",
"7  c #3A0706",
"8  c #23130D",
"9  c #2B130D",
"0  c #2A180F",
"q  c #34140E",
"w  c #39150E",
"e  c #3B0A11",
"r  c #231611",
"t  c #2B1511",
"y  c #231B13",
"u  c #2B1B14",
"i  c #241C1A",
"p  c #321410",
"a  c #341C15",
"s  c #3B1C14",
"d  c #391916",
"f  c #200E17",
"g  c #1A261C",
"h  c #24231D",
"j  c #2B231B",
"k  c #292419",
"l  c #33241B",
"z  c #3B231B",
"x  c #372419",
"c  c #2E2B15",
"v  c #292923",
"b  c #382A24",
"n  c #36352A",
"m  c #383A34",
"M  c #2A352A",
"N  c #2F1F22",
"B  c #43060B",
"V  c #440A0D",
"C  c #4C0B0D",
"Z  c #48060A",
"A  c #530B0D",
"S  c #58090C",
"D  c #46110D",
"F  c #4B0C12",
"G  c #450A12",
"H  c #540C13",
"J  c #5B0C12",
"K  c #570C17",
"L  c #431B15",
"P  c #491815",
"I  c #571717",
"U  c #630D0D",
"Y  c #6C0C0D",
"T  c #660B15",
"R  c #790E17",
"E  c #641214",
"W  c #6C1314",
"Q  c #68171B",
"!  c #761518",
"~  c #700E0A",
"^  c #44221B",
"/  c #49241C",
"(  c #55241C",
")  c #40371F",
"_  c #68241C",
"`  c #78261E",
"'  c #691824",
"]  c #791925",
"[  c #79122B",
"{  c #482A24",
"}  c #562B25",
"|  c #46352A",
" . c #563429",
".. c #453B33",
"X. c #583833",
"o. c #572C32",
"O. c #682724",
"+. c #772927",
"@. c #66362B",
"#. c #77372A",
"$. c #693A34",
"%. c #793B35",
"&. c #772637",
"*. c #5C1E24",
"=. c #3D453B",
"-. c #3A4438",
";. c #44473B",
":. c #58483A",
">. c #5A553C",
",. c #674535",
"<. c #77473A",
"1. c #796636",
"2. c #763B44",
"3. c #3E4A42",
"4. c #464B42",
"5. c #4B5647",
"6. c #555747",
"7. c #56524C",
"8. c #675B54",
"9. c #71524A",
"0. c #596556",
"q. c #4D645B",
"w. c #696758",
"e. c #756A59",
"r. c #6F7166",
"t. c #556D65",
"y. c #870D17",
"u. c #87181A",
"i. c #97161A",
"p. c #900E14",
"a. c #A6151B",
"s. c #AB1116",
"d. c #91231B",
"f. c #881925",
"g. c #971827",
"h. c #95162D",
"j. c #A71A27",
"k. c #B81928",
"l. c #A91836",
"z. c #B61838",
"x. c #B20C2C",
"c. c #862526",
"v. c #962729",
"b. c #98372A",
"n. c #8A2A38",
"m. c #992838",
"M. c #8A3836",
"N. c #953536",
"B. c #883329",
"V. c #A92627",
"C. c #B5252A",
"Z. c #A92738",
"A. c #B92537",
"S. c #A83638",
"D. c #B03633",
"F. c #A2231E",
"G. c #CB181A",
"H. c #C91726",
"J. c #D71B24",
"K. c #C91332",
"L. c #E41C26",
"P. c #F51A26",
"I. c #C7292B",
"U. c #CD2E34",
"Y. c #F52B33",
"T. c #EC171B",
"R. c #894939",
"E. c #984739",
"W. c #914F3D",
"Q. c #B74637",
"!. c #AA4231",
"~. c #C74737",
"^. c #D24F3A",
"/. c #EA463B",
"(. c #B11C45",
"). c #933346",
"_. c #B92747",
"`. c #A83746",
"'. c #B2344F",
"]. c #B73861",
"[. c #C41949",
"{. c #C52848",
"}. c #C83857",
"|. c #D63758",
" X c #CE2D4C",
".X c #F8384C",
"XX c #CF3667",
"oX c #F33464",
"OX c #984748",
"+X c #865546",
"@X c #975846",
"#X c #8F4F53",
"$X c #A75745",
"%X c #AF4D53",
"&X c #916757",
"*X c #AA6F5B",
"=X c #B85A69",
"-X c #AF5268",
";X c #8C726B",
":X c #B3716E",
">X c #975369",
",X c #CC4F4F",
"<X c #F05549",
"1X c #D26754",
"2X c #F8654B",
"3X c #F36E55",
"4X c #C35A67",
"5X c #D65777",
"6X c #D04A70",
"7X c #E45175",
"8X c #D8687B",
"9X c #CB6970",
"0X c #EA796A",
"qX c #758572",
"wX c #928A74",
"eX c #AF8576",
"rX c #D08F76",
"tX c #EC8672",
"yX c #E63B8E",
"uX c #D53687",
"iX c #D95289",
"pX c #EC5392",
"aX c #D57389",
"sX c #E76F8E",
"dX c #E970A8",
"fX c #E263A3",
"gX c #E560C0",
"hX c #76978C",
"jX c #8F9288",
"kX c #B0958E",
"lX c #AEB4AC",
"zX c #9AA89C",
"xX c #D38C8C",
"cX c #E79393",
"vX c #F4B190",
"bX c #E895AF",
"nX c #D7A9A7",
"mX c #EDB2B3",
"MX c #D79D9C",
"NX c #F2ADCC",
"BX c #D8A3C7",
"VX c #B8DACF",
"CX c #B5E3D4",
"ZX c #CFCFCE",
"AX c #F0CDD3",
"SX c #C9E6D7",
"DX c #F3D7ED",
"FX c #C4EDE6",
"GX c #D9F6E9",
"HX c #D5F9F6",
"JX c #CCF4F1",
"KX c #E4FDF8",
"LX c #F9FDF8",
"PX c #F0EEEA",
"IX c #EEE5DA",
"UX c #C6C6B1",
/* pixels */
"3X} X @ # # q s <.B.eXJXFXGXGXGXJXHXIXmXxX9X9X8XMXAXDXLXPXPXDXLXLXLXLXLXUXwX$.u @ + + X + ; f - f b n b z z d i * @ w 9 9 @ 0 P ",
"2X/   < O 1 ^ ^ b.E.CXGXGXGXGXKXAXaX%XA.C.,X9XaX4X-X>X:X=X:X9XxXMXIXLXLXLXLXZXwXo.: + f # # ; f h v ....| b b * + p q @ % 8 L 8 ",
"^.q < @ 1 ` @.O.b.lXGXGXGXKXPXvX{._._.4XcXmXAXcX-X`.`.).c.n.).`.%X$XxXAXPXPXLXLXIXjXN # f f f f i f N N v i * * a 9 @ $ 8 w < 8 ",
"!.< 9 1 _ R.#.#.kXHXHXGXKXAX5X(._._.}.sXdXbXbX8X_.h.] ).&.n.'.9XdX=X%X4XMXDXIXAXLXLXDX;Xf + ; f f ; ; . . $ * y 8 O $ % 8 & 8 y ",
"_ L s +.E.#.%.lXHXHXJXKXMX{.z.l.Z.'.}.}.XXpXiXiXXXm.[ ' &.' n.6XsXiX%X,X9XMXAXAXmXmXAXAXnX-X*.X ; ; = i * $ $ + O % & $ $ % % $ ",
"_ ` B.b.#.jXVXJXJXJXLXbXK.I._._._._.z.{.5XdXBXgXuX(.[ ' ] ' ] v.'.5XXX'.,X8XbXAXmXcXsX0XsXsXaX2.o.o.f X X + . + 8 y O . $ $ $ $ ",
"_ b.E.;XlXFXFXJXJXKXNX Xk.(._.XX{._.[._.].6XXX].].(.h.T Q ' K ] '.7XXX}.D.D.8XcXmXNXcXsXaX8XaXsXiX5X-X#XN X . ; O . . O O O   O ",
"d.1XlXCXCXFXFXFXKXDX6XH.x.(.[.(.[.(.z.l.].iXfXpXXXl.y.' K ' Q W S.6X5XXX_.D.%X9XxXmXbXxXaXsX8X8XaXaXiXMXjX=.f X X X X   . O $ % ",
"kXVXCXVXVXFXFXJXLXbXK._.z.z.(.z.z.l._.XXfXpXyXuX Xg.u.W J H H S A u.Z.Z.Z.`.'.}.9X:X9X4X4X4X4X4XiX].-XlXr.t.- b n = - = . ; $ $ ",
"ZXVXCXVXVXSXFXKXAX,X Xx.x.z.x.h.j._. X{.(.[.XX_.l.g.u.R J Z ' ' &.W _.Z.g.v.D.%X=X=X`.%XOX`.%X`.).-XlXzX8.4.. m ;.h i i r 1 @ O ",
"VXVXSXSXFXFXHXLXnX Xx.l.x.j.h.h.l.h.h.i.h.h.h.g.j.V.g.Q J J `.Z.6X).f.}.A.g.v.m.-X9X-Xn.N.).N.).;XUXjX;X8.M ; m h = = $ * d +.m.",
"VXVXZXSXFXHXLXPX6Xx.x.g.h.[ R R T R y.h.h.g.k.A.{._._.Z.g.l.h.{.fXpX_.XX`.v.g.f.[ OX-XM.+.+.M.wXwXkX7.9.7.v - v - - . M 2.&.*.e ",
"VXSXIXGXKXLXPXiXK.g.h.j.R T A A W R [ R u.g.g.! K F H R f.h.z.6XXX(.(._.h.h.Z.v.m.] N.OX&.' nX6.+X:.x ;.;.m . g . g 9.-XO.- ; P ",
"nXcXbXAXPXLXiX[.x.l.l.[ A 4 Z S U S U U U 7 > > 6 S W T R x. X|.p.Y y.l.' n.m.m.m.).] n.c.&XjXl :.y y | ..m X m r.aX).* ; - Q ! ",
"sXbXZXPXLXaXuXuXiX'.R Z 2 Z Z F C C 7 > > > 7 A W R T K x.[. Xy.J 4 R [ 4 f.`.Z.f.).&.] OXkXb b l + u v n 8.8.aXiXN . = I ! I 8 ",
"ZXFXKXLXfXdXBXbXXXR S 2 4 4 B B B 7 > 1 2 B A R T H H h.K. Xh.S 4 Z T F , F ).'.`.n.n.T ' 6.m k v l 7.9.&X=X4X2.v i ( Q Q q - $ ",
"FXDXAXfXbXDXbX(.i.T 4 , > , 7 3 , : : 7 C U U A C V R j. Xl.T 4 B K F 3 > 4 G n.4X=X%X).OX8.8.&X&X*X#XN.S.4X>X9.n.h.u.I & - - % ",
"bXdXfXAXDXyXK.x.T 3 > : > 2 , o # > D U U A D D 7 y.k.k.y.y.Z 3 B G e > , 7 B B ' #X%X%X%X%X%XOXN.h.f.v.`.%X`.V.u.I = - - % y 0 ",
"fXdXDXNX|.x.y.K e 5 3 , : # X : C U J A A C 7 B g.C.i.R y.K > 4 3 3 e : : 7 G V G S Q R Q T W R R f.f.] ! ! E e * - $ - $ $ 8 0 ",
"NXDXdXoXK.h.f.] Q K 3 # o , H E I A C Z V > B C.a.y.R T G , , , : e b , 3 , 6 G G K ' +.f.c.f.c.] Q P d z x $ X . . . . = a { &.",
"NXfXyXyXXX{.Z.] F , 5 K ' ] J C V 7 5 3 : V C.V.U ! J 4 : , 3 : , *.9.P e e : , B S J E Q ! n.).'.'.].>X>X).n.&.&.&.n.m.A.U.A.Z.",
"gXpXXX{.A.f.R W ' [ [ ' F 5 > > > > > > H g.u.C ! E 2 : 2 , o : 5 9.rX9.e e 3 , : 3 J W u.u.u.u.V.U.U.<X.X.X.XY.Y.Y.J.j.u.! c.c.",
" XK.I.V.m.(._.l.[ K > : : > > > > > 1 C ! ! Z S T : : 2 , o o : X.wX:X*Xo., 4 G Z G G F J d.V.I t t 5 7 Z V C D 6 5 t < + ^ +.+.",
"K.|.XX}.}.Z.[ K 3 5 > > > > 5 2 > > H W Y Z C F o : 3 3 o o : e &XrX*X*X$.5 4 F H K J H I W C.U.V.+.l - * = = & % @ < 9 L ` d.a.",
"Z.Z.Z.c.Q I G e e , > : > 7 7 5 5 J ! S B 6 3 o o 2 2 : o o > } :XrX*XR. .^ 5 G K S J T Y U S y.I.Y.<X5X8X9X%X).).Z.C.k.H.L.T.L.",
"I G G G e G 4 3 3 7 7 6 6 7 5 7 I W S V 2 : o : , 2 : : o : d 9.eXvXrX$.,.{ 5 , G J S K J Y Y Y ~ y.p.s.k.K.L.P.Y.L.L.L.L.L.J.I.",
"P K I I I F D A D D C C V 7 D E Y C 7 > o o o > 3 , , , o > } 9.*XrXW.( $.d 8 , , 3 C J J J S J S S S U Y y.s.s.G.G.J.L.L.L.J.G.",
"E ' ' ] ! W ! J I A A C C A E J V 2 : : : : > 7 , < e : o s ,.9.&XR.( / d p t @ 3 4 , 4 Z Z F F Z V 7 7 2 7 S Y R y.p.p.p.s.s.s.",
"7.M.V.C.k.a.! E U U J E E C 7 > > > : : : > 6 , < l 3 : 5 } <.+X$.5 s < + @ @ t 9 4 B 3 6 B Z Z 7 7 2 > > > > > 2 2 4 B A J p.K.",
"S.I.I.I.V.! ! ~ U ] u.Y 5 : : : : : > > > 7 , o z d 3 2 ^ $.<.%.5 #   X z a < L P 5 e G G B A Y U S S Z Z Z Z Z S S S Y y.H.P.P.",
"|..XU.F.u.u.p.f.l.a.U 5 1 : : > > 2 2 6 Z : o d l 5 B I { $.<.s X X + ;.*Xq s / _ C 3 3 G H H S U U Y U S S S J U R j.H.J.k.x.z.",
"7X Xk.s.s.a.U. Xj.C t 1 o : : > 7 7 C 6 : # 9 { d G E ( d { s : x ,.1.,.X.q / ( O.O.e e 3 6 A R R Y U U J S U Y a.H.J.j.[ ] j.k.",
"G.s.k.K.|.oX Xu.D 5 : o : : > 4 Z C 2 # # 1 # 0 q R I ^ / w w s x ) x a P P ( } _ #.E A 6 6 6 S u.i.s.s.a.p.p.p.j.g.f.] c.g.f.f.",
"I.|.yXyXoXC.Y 6 , : o : : : 2 B 7 : : : : o X O A ~ q z {  .@.,.z 9 x  .@.( @._ Q.` I ! F H S A R p.R H F G G G Q v.m.c.v.O.} { ",
"pXpX,XI.R V 2 > 2 , > : , 2 e 2 , , > 1 5 c c a i.D % x  .<.R.&X+X<.<.<.,.( _ E.2X_ w ! K T R W R s.j.J < 9 e d P &.@.+.+.d { L ",
"I.F.U 7 5 7 V V 6 6 2 3 3 3 3 3 V 4 > > w n c _ ! j 0 0  .R.W.W.@X&X&X@XW.@.O.^.<X_ w u.K W i.R i.p.s.H.g.K t p I O.c.O./ / d u ",
"J I A J H F H H V 6 7 4 3 , e T F 3 3 5 8 @ q u.w x l 0 } W.$X$XW.*X$X&XW.@.B.^.<XP D F.J ! s.u.V.a.A Q a.g.! Q ' Q P L ^ d o.u ",
"! ! ! Q E T J J K C 3 , 3 ' h.T G 4 6 5 0 0 _ U / x a a ) R.$X$X@X$X&X@XW.<.b.2X^.L I a.H ! J.F.V.j.` #.( I P w 8 t d d t t | r ",
"Q ! ! d.i.! E K B , G *.%X|.y.K A ( } { q L Y /  ./ x a / <.E.W.W.@X@X@XW.#.!.<X~.L W F.I R Y.F.C.d.+.+.( / 8 + @ % 8 r t @ O % ",
"! g.C.C.g.T F K } ;X%X=XiXl.[ S O.9.w.&Xs P D } X.{ x x ^ <.@X@XW.@X@XW.W.R.~.2X!.w d.u.F R Y.V.I.c.d.#./ w 8 l u O + @ @ + ; + ",
"f.j.u.! O.q.jXe.;X:X9XiX{.n.T G &X:.>.>. .D P / ) / ^ x ^ @.@XE.W.+X@XW.R.!.2X2X_ D d.I E ! Y.I.I.` B.` P t 8 x { t @ O O + $ ; ",
"+.9.jXhXzXCXjX9.+XaXsX}.m.T Z 9.,.| | c ( V L x ^ s x x | @.$X1X$XW.W.W.B.~.2XQ.L ( ~ L ~ ! Y.Y.C.( u.Q w 9 t x a t r @ + # + + ",
"hXqXSXCXVXUX%X#X:XpX}.m.T K 7.<.X.| c x I P x a x x x a x s #.<.,.W.$XR.d.2X2X` L L ` L ~ ~ T./.I._ I t #   @ p a < + + + * * f ",
"ZXlXr.wXkX=Xo.$.7XXXh.K K 7.#X@.;.c j W E s k x w x z ^ x w q / W.Q.B.B.~.tX^.I ( 0 ~ _ ` d.T.Y./.B.s p p 5 # 8 y + + * * r * r ",
"lX5.n %.$.h | 6X6Xi.Q *...9.} n | k P W I r * = x s a 0 0 9 0 L @.D d.^.<X2X` L q 8 D v.` s.J.Y.Y.Y./.v.d.V.V.9 $ i v b | X.b o.",
"3.n X.;.g :.6X|.f.' } :.<.:.c :.n L ! Q z % u $ $ a s 0 # # # < : ( $X~.3XQ.D q 0 # Q B.V.C.J.G.T.P.Y.d.P q d.d.k { :.| N { $.$.",
"-. .v -.).}.D.f.Q n n X.n n { >. .+.d.{ - u i & 8 + q s a 7 D 5 D #.B.<X3XI 0 q 9 o D.#.Q.I.d.G.s.J.T.J.E x I V.r u b x t w } $X",
":.M n %X_.f.Q } b b | M n n ;.X.M.S.O.* b k h h 0 x O 0 x q w w / ` b.3X#.8 0 0 X ( ^.b.2X^.w P ! W W s.a.H P c.r * + < 9 <.$XV.",
"v 7.'.j.Q I } m b h - h b 9.2.#X%XD.c k = + v M 8 y % X 8 L /  .#.B.~.B.# 0 9 X X 1X!.tX3XB.8 $ $ O @ 9 ^ E ` +.# l u d +X:Xd.d.",
"%.`.f.Q &.X.v g v h h N b :X:X%X{.x $ . . * + % c % $ O X 0 ^ ( O.#.( 8 q 8 O X  .tX@XvX1X# $ & % O 0 q s q O.} w + @ ,.xXb.d.v.",
"f.f.O.} { ..;.v v v b t 8.ZXsXZ.t $ $ . * x | | k x 8 O O   O % & % 8 0 % O O 1 1XE.tXvX/ $ & % $ 8 s q q P I I P d L eXb.d.!.F.",
"+.{ { v v N n v v b N 4.kXsX'.@ b l   . h >.wX9.j b x O @ % % % 8 @ 8 8 @ X :.Q.` ^ rXW.  8 % - $ 0 L q L / q 8 w I #.%.c.rXQ.d.",
"v v h i h v i i b m w.nX5Xm.b |  .c   = -.;.8.9.b h a + $ & 8 & 8 / / & % # xXE.9 } @X;.$ & y % 0 x x L L / 0 8 w P D ` ~.3XD.b.",
"v b v 3.m 3.q.q.t.e.>X%X2...9.;X;X;.- M M M & ..b = y $ y t a ^ ,.,.l 0 O z 9X<.R.1X( & 8 y y & a ^ z a } z u 0 0 P P _ V.I.1X,X",
"v v m 5.3.5.t.r.>X#X#X8.8.r.;Xe.;X6.g M -.c = = k j y r u l s X.{ a u u 8 { E.F.$XE.& & y k = y x ) /  . .c @ 9 a 9 P E V.^.vX<X",
"v v m m m 7.9.8.q.8.8.0.w.e.r.eXr.m i g h g = - y k 8 r 0 t x z z x w a 0  .E.1X$X/ y y u j % a / | | ,.c % @ x 0 # D Q V./.0X1X",
"3.3.-.-.=.=.5.5.8.0.q.0.w.e.r.;XjXjXl $ . . $ $ . . + . O & z ^ ^ ^ ^ L t 9.xX*X} ^ y y k u 0 s { {  .) y y 8 l 9 < 9 A ~.2X0X0X",
"4.4.3.=.=.=.=.0.0.t.0.0.0.w.e.r.wX4.= - - - $ . + . $ $ + + u ^ ^ L ^ ^ a &X&X/ L z = y = { x k x { ) l u 0 8 u 9 1 q A b.2XcXcX",
"=.=.=.=.-.=.3.5.6.0.0.0.0.0.w.qXqX-.g - - O . . . $ . $ $ $ $ a / ^ ^ L ^ ^ L / / x = y k x & u x b j x u y 8 a 0 9 5 _ v.3XvXtX",
"=.;.=.=.=.=.=.=.4.5.0.r.qX0.5.qXt.v = k x % % % % % % y y = & $ z } ^ ^ ^ / / / ^ u % y 0 % + u c y l u u 8 8 u 0 < 2 ( Q.2XtX3X",
"=.=.=.=.=.3.=.=.=.=.>.>.qXwXjXqXh & j / 0 y % $ = & & k y k 0 y * z { / L / ( / ^ u $ y u % @ % y & y u u y $ 9 8 < 7 ( Q.3XrX<X",
"=.=.-.;.=.=.;.3.=.5.;.qXwXqX-.g k b {  .a y & = = k k % k k k k y % z { ^ ^ / ^ x y $ 8 u % % @ & 8 % 8 0 & $ < O < 1 P !.3X0X<X",
";.;.;.;.;.>.;.>.5.6.qXqX-.=.g & x { )  .s y = h y y c * k j l k y * & z { L ^ ^ p + $ $ 8 $ + $ 8 $ O $ % O O O O # : P ,XrX,X<X",
">.;.;.>.>.6.5.5.q.0.5.-.qXwXwXw.| | ,.9./ u - = y y c j k l j k y y & & s ^ z s %   + O 8 $ @ $ O $ + # + O O # O O # _ $X@XI.<X"
};
