/* XPM */
static char *_76174335d2643d78e712490222d75e5WIRc5x1fiyXUqfuN[] = {
/* columns rows colors chars-per-pixel */
"64 64 238 2 ",
"   c #051516",
".  c #0C1415",
"X  c #0C1C16",
"o  c #0C1619",
"O  c #0E1C1B",
"+  c #071B19",
"@  c #111516",
"#  c #11161A",
"$  c #131C1C",
"%  c #191E1D",
"&  c #101916",
"*  c #080807",
"=  c #0E221C",
"-  c #0C291D",
";  c #12231D",
":  c #1B221E",
">  c #132A1E",
",  c #1A2A1F",
"<  c #21241E",
"1  c #141E22",
"2  c #191D21",
"3  c #0E2325",
"4  c #132422",
"5  c #1B2422",
"6  c #142B22",
"7  c #1B2B25",
"8  c #12242A",
"9  c #19242B",
"0  c #152C2B",
"q  c #1B2D2A",
"w  c #173227",
"e  c #132634",
"r  c #1B2633",
"t  c #152935",
"y  c #192935",
"u  c #152D3B",
"i  c #1A293A",
"p  c #19273A",
"a  c #1C3334",
"s  c #15333D",
"d  c #1A343A",
"f  c #0F2A37",
"g  c #222524",
"h  c #242A24",
"j  c #232B2B",
"k  c #2B2C2B",
"l  c #26272D",
"z  c #2D3129",
"x  c #262D38",
"c  c #27373A",
"v  c #38373A",
"b  c #32352B",
"n  c #331619",
"m  c #493739",
"M  c #6F222B",
"N  c #2B443F",
"B  c #3D403D",
"V  c #143442",
"C  c #1B3442",
"Z  c #163944",
"A  c #193C48",
"S  c #223C45",
"D  c #2A3842",
"F  c #373C47",
"G  c #433D47",
"H  c #4D3E51",
"J  c #1A424D",
"K  c #1B4655",
"L  c #29464B",
"P  c #394446",
"I  c #264956",
"U  c #38545F",
"Y  c #3C4654",
"T  c #1A4C65",
"R  c #1C566B",
"E  c #1B5973",
"W  c #214E65",
"Q  c #22556C",
"!  c #255A6D",
"~  c #265766",
"^  c #255D74",
"/  c #1E647B",
"(  c #27606E",
")  c #296478",
"_  c #33677B",
"`  c #46474A",
"'  c #494A54",
"]  c #465453",
"[  c #585657",
"{  c #5A4852",
"}  c #694F58",
"|  c #615C65",
" . c #765064",
".. c #446578",
"X. c #4F6A72",
"o. c #6A666B",
"O. c #736B6F",
"+. c #796F77",
"@. c #7A757A",
"#. c #63777A",
"$. c #555D64",
"%. c #8A2433",
"&. c #932636",
"*. c #952B38",
"=. c #9A353E",
"-. c #9D3948",
";. c #994655",
":. c #934A53",
">. c #8B5873",
",. c #A35667",
"<. c #BA5963",
"1. c #896976",
"2. c #89757C",
"3. c #94757E",
"4. c #8B666E",
"5. c #AE6A77",
"6. c #A74953",
"7. c #2A6C81",
"8. c #577686",
"9. c #7B7983",
"0. c #AC5D8A",
"q. c #857B85",
"w. c #977986",
"e. c #9E6680",
"r. c #AB6287",
"t. c #AD638B",
"y. c #A6698A",
"u. c #B2658C",
"i. c #A3768C",
"p. c #AD6491",
"a. c #AC6D95",
"s. c #B36C93",
"d. c #AB7897",
"f. c #B8789A",
"g. c #B37783",
"h. c #BD7FA4",
"j. c #D17C89",
"k. c #6E828E",
"l. c #898388",
"z. c #9A8589",
"x. c #9C8A93",
"c. c #9C9196",
"v. c #989498",
"b. c #868E9D",
"n. c #A4858C",
"m. c #A98588",
"M. c #B0888F",
"N. c #A78894",
"B. c #B5879C",
"V. c #A4949B",
"C. c #AC939C",
"Z. c #A69A9B",
"A. c #B29295",
"S. c #8797A0",
"D. c #999DAA",
"F. c #BA88A2",
"G. c #AC98A3",
"H. c #B495A3",
"J. c #B993A5",
"K. c #B39BA4",
"L. c #BA9EA9",
"P. c #BB9CA6",
"I. c #ACA4A4",
"U. c #BCA4AD",
"Y. c #B7A8AA",
"T. c #B8B1AE",
"R. c #BDAAB2",
"E. c #BEA6B2",
"W. c #BDB6B7",
"Q. c #AAAAB6",
"!. c #C48AA7",
"~. c #C697AA",
"^. c #CE9DB5",
"/. c #C4A4AC",
"(. c #C3A5B2",
"). c #C4ACB4",
"_. c #C9AAB6",
"`. c #CCAEBA",
"'. c #C7ABB9",
"]. c #D3ADBB",
"[. c #D3A8B8",
"{. c #C4B3B5",
"}. c #C6B3BA",
"|. c #CCB3BC",
" X c #CBB9BD",
".X c #C5B8B8",
"XX c #D1B4BD",
"oX c #D4BABC",
"OX c #D0A9AE",
"+X c #CA8691",
"@X c #C8C3BF",
"#X c #CEB5C0",
"$X c #CDBDC1",
"%X c #D3B5C1",
"&X c #D4BBC4",
"*X c #D9BCC6",
"=X c #D6BDC8",
"-X c #DABEC9",
";X c #DBB4C3",
":X c #D7ABC0",
">X c #E3BAC9",
",X c #C5C2C3",
"<X c #CCC3C4",
"1X c #CCC8CB",
"2X c #D3C2C4",
"3X c #DBC1C7",
"4X c #D6C4C9",
"5X c #DDC3CD",
"6X c #D5CCCA",
"7X c #DDCACE",
"8X c #D3C9C5",
"9X c #DBD2CE",
"0X c #D7D0CB",
"qX c #DFC5D0",
"wX c #DFC9D0",
"eX c #D3CDD1",
"rX c #DED5D3",
"tX c #DED9D5",
"yX c #D8D6DA",
"uX c #CDCED0",
"iX c #E1C6CE",
"pX c #E2C9CF",
"aX c #E1C6D0",
"sX c #E2CAD2",
"dX c #EACCD4",
"fX c #EBCFD9",
"gX c #E7C8D5",
"hX c #E0D6D4",
"jX c #E1D9D5",
"kX c #EBD2DA",
"lX c #E5DCD9",
"zX c #EADDD9",
"xX c #E8D1D7",
"cX c #E4D0CD",
"vX c #EBE1DC",
"bX c #E5E0DA",
"nX c #EFE7E2",
"mX c #F1E6E3",
/* pixels */
"8 8 6 4 4 6 4 = = = o O O O o o 4 > ; > 6 > > ; $ ; > ; O O O O 1 $ 4 O 1 4 1 $ $ $ $ $ $ # 1 # $ $ $ $ % % $ % 5 ; ; $ ; 4 > 4 ",
"6 6 6 0 8 3 8 4 4 1 1 O $ 1 O O $ ; $ ; 6 , : ; ; ; : ; O O o       o +     +   o O 1 $ 1 $ # $ $ $ $ $ % & & 5 : ; O $ $ ; $ > ",
"6 6 0 w 0 6 6 8 4 3 8 = ; $ 1 O X ; > > ; X % > w 6 X   o 9 F [ o.9.l.l.q.@.o.' v % . . # 1 $ $ $ $ % $ % % % : , ; & $ $ O 1 > ",
"6 0 w 0 0 6 4 4 4 = O O $ O $ 1 > > > , = O ; 5 X O v o.x.W.5XxXkXkXxXxXkXkXxXsX3X).2.[ k o . # % % % # % & $ : g : $ $ $ $ $ $ ",
"6 8 6 6 6 3 4 = O $ O O ; ; ; O - > > w w =   4 ' c.3XxXkXsXaXqXpXpX7X7XiXiX5XiXpXxXkXxX&Xc.[ g . @ % % # % & < g 5 $ $ $ 1 O 1 ",
"4 6 6 6 6 6 4 ; ; ; O > > , > 7 } % > w > X ` G.dXkXsX5XqXaXaXqX%X3XpXpXpXpXpXpXpXpXpXpXsXkXxX|.q.v @ % % % $ : g , ; $ 1 # 1 o ",
"6 4 4 4 3 4 6 > 4 4 O = > , - [ 6.n 4 X x c.gXxXiX5XaXiXsXqX|.|.&XiXpXpXpXpXpXpXpXpXiXpXpX7XpXsXfX3X2.k @ % % % % 5 4 1 4 O $ $ ",
"6 4 4 6 6 4 4 = = ; $ $ $ X w :.&.M o [ 2XxX7X5XpXpXsXgX5X#X&XaXsXpXpX7XpXpXpX7XpXpXpXpXpXpXpXpX5XpXkX X| % : < % : 4 4 4 ; $ 4 ",
"6 6 6 6 6 > 6 = = ; $ O o   G ;.&.M } sXsX5XaXaXaXwXwX`.%XsXsXiXpXpXpXpXpXpXpXpXpXpXpXpXpXpXpXpXpXpXiXdXfXc.k , : ; 4 1 4 ; 1 $ ",
"w 6 6 - > > > > ; 4 O O $   { =.&.%.5.gX5XaXsXaXsXqX}.#X5XsXpXpXpXpXpXpXpXpXpXpXpXpXpXpXpXpXpXpXpXpXpXpX5XkXY.v & : 5 $ 1 1 4 1 ",
"> > > 6 > > > ; 4 6 4 ; : & m =.*.*.~.gXiXaXaXaXqX&XoX|.5XsXpXpXpXpXpXpXpXpXpXpXpXpXpXpXpX7XpXpXpXpXpXpXsX5XxX|.v % < : 4 1 4 1 ",
"w 6 > > > > > ; 4 > > ; > & m *.%.5.hX&X5XqXaXsXqX&X%X5XsX7XpXpXpXpXpXpXpXpXpXpXiXpXpXpXpXpXpXpXiXiXpXpXpXpX5XdX{.b : 7 4 > 8 9 ",
"> > > > > > > > ; = ; > ; 4 : M :.*X&X|.sXqXaXsX&X&XsXsXpXpXpXpXpXpXpXiXpXpXpXpXpXpXpXpXpXpXpXpXpXpXpXpXpXpXpXiXkXC.g 7 8 6 6 8 ",
"- > > > = > = = > ; ; > , X ` 4./.sX`.7XaXaXgX-X|.aXaXaXpXpXpXpXpXpXpXsXpXpXpXpX7XpXpXpXpXpXpXpXpXpXpXpXpXpXpXpXpXdXo., 7 w 0 w ",
"> > > 6 > = ; - > ; > 6 6 4 Z.fX5XU.=XsXsXxX5X#XsXaXaXaXaXpXpXiXsXaXsXiXpXpXpXiXsXpX7XpXpXpXpXpXpXpXpXpXpXpXpXpXpXdX).x 0 0 0 0 ",
"> > ; > > 6 > 0 = > ; > = ] 5XpX).R.sX5XsXqX`.iXaXaX7XsXiXsXiXsXiXpXiXpXpXpXpXpXpX7XsXiXpXpXpXpXpXpXpXpXpXpXaXiX-XiXdXo.$ 7 0 0 ",
"= = ; X , , > > 6 ; ; 4 = c.dXoX{.5X#X5XsX%X=XaXpXaXsXpXaXsXiXaXiXsXpXsXiXpXpXpXpXpXpXpXpXpXpXsXpX9XpXpXpXsXsX3X&XqXgXY.9 7 0 8 ",
"X = ; ; > > w > > 4 ; X P 5X%X<X$X#X).gX-X=XaX5X7XpXiXiXsX7XsXiXqXaXiXaXiXaXaXaXpXpXpXpXpXpXpXiXpXpXpXpX7XwXaX5X#XqXqX5X` 7 a t ",
"X X = & = > > w > 4 > . q.5X<X2X=XG.&XaX-XqX=X=XwXsXwXsXsXwXaXsXsXiXsXaXaXiXpXpXpXaXpXiXpXpXwX7XpXpXpXpX7XaXsX5X|.qXqXdXO.5 a a ",
"; ; ; ; O ; > > > 4 ; x |.|.Y.R.#XL.gX5XwXqX=XaXsXwXsXsXwXwXaXiXsXiXaXsX;X/.pXpXaXiXiXpXaXpXsXiXsXpXpXpXpXsXsX5X=XqX5XfXl.4 a a ",
"6 6 4 > ; O ; 4 ; 4 + o.*X4X{.U.).#XqXqXaX&XqXaXqXwXsXwXeXqXsXwXsXsXsX4X~.,.].dXiXaXaXiXiXaXsXpXpXpXpXwXsXiXsXsX-XqX5XxXZ.5 j a ",
"6 6 6 ; O $ O ; 4 ; 4 G.*XjXeX).x.qXqXqX=X&XaXqXsXwXsXwXaXxXsXwXsX5XsXXX5.%.B.fXiXaXiXsXsXiX5XsXaXiXsXiXaXiXaX5X&XaXqXgXU.h j a ",
"6 > > = ; O = $ ;   ` oX6XjXoXG.i.wXqXqX).qXaX-X4XgXqX=XgXsXqXsXpXiXaX~.-.%.,.gX5XaXsX5X5XsX5XsXaXiXpXwXsXaXaXqX#XaXqXgX`.k : q ",
"4 4 4 4 ; = = O > * 2.].@XjX{. X}.wXgX).E.gXqX#X5XsX%X3XsXsXsXsX7XpXiX5.&.*.:.3XsXaX7XsXsXiXsXaXaXsXwXqXsX&X&X5X`.aXqXsXE.g : q ",
"= 4 = 4 4 4 1 $ = 5 K.OX<.A.U.{.=XaX-XL.5XaX&X|.fX`.(.gXaXaXaXaXaX5XXX,.&.&.5.fX5XwXwXaXpXaXaXpXaXwXwXwXsX&X&X3X%XaXqXxXG.2 < 7 ",
"O 1 O $ 4 9 1 4 O P ).pX4.* 2.Z.W.sX|.'.pX5X_.5X-XG.qXqXaXqXaXaX`.|.].;.&.;.3XsXpXsXsXaXsXaXiXsXaXaXwXqXsX|.&X-X=XaXqXfXc.2 h g ",
"8 4 1 1 1 1 1 9 X +.oXjX6Xz x R.|.4X{.4XiXXXXXgX'.#XsXqXqXqXqX`.L.&X5X,.%.~.xXqXsXsX7XaXiX5XsXsXsXiXwXaXsX`.3X&X=XaXqXkXl.& h g ",
"y 8 8 4 1 1 1 e 8 V.7XtXlX0XB O.pX X|.5X5X_.aX&XE.qXqXqX&X=XK.).$X5XsXA.M.sXaXqXsXsXiXaXiXsX5XsXaXsXwXsXaX`.5X%XqXqX5XkXO.X g g ",
"0 e 8 8 9 9 1 1 F ).rXjXrXvX<X@.4X<X XpX|.oXiXY.#XqXsX|.&XE.K.2X$XqXaXsXsXqXsXaXwXsXqXsXaXaXaXsXiXiXsXsXqX#XqX5XqXqXaXkX[ & h < ",
"p y t y 9 r r 8 | 4XjXtXjXrXlXlXhX7X&X5XE.5X Xx.3XaX*X`.#XE.|.6X#XaXiXaXaXsXsXaXxXsXsXqXpXsXsXsXsXiXsXxX=X#XaXaXsXxXsXjX` ; z b ",
"s u t y y x r y q.wXjXtXtXtXrXtXjXjX7X*XXX4X{. X5X5X_.|.R.U.$X6X#XsXqXaXsXaXaXsXjXsXsXaX5XwXsXsXqXqXxXrX&X&XxXqXxXwXsX4Xv % h z ",
"u t t i t y r x V.lXtXtXjXjXlXrXjXjXjX7XpX&X X XsXXX).x.x.{.jX<X&XsXaX5X=XwXiXsXsXsXsXsXqXsXwXsXaXqXxXsX`.=XwXwXwXwXsXY.k : j z ",
"V u s p y p p D  XlXtXtXtXjX,X9XlXjXjXjX5X$X}.*X5XE.W. XZ.c.jX X=XwXaX&X#XsXqXxXxXwXqXsXqXsXsXiXiXsXhXqX).qXwXwXaXqXfXx.< h < z ",
"V s V V p i e $.lXrXtXjXjX6X6XjXtXtXtXtXrX9X2XsX-XL.C.$X).<XW..XqXqXaX`.-XaXqXxXwXwXaXqXaXsXaXiXiXsXxX3X|.sXaXaXaX5XfX1.: < , h ",
"C V V u p i t v.vXtXjXjXtXtXjXjXtXtXtXtXtXlXT.` ` q.Y.z.@XvX0XR.qXqX3X`.sXsXqXsXqXgXwXqXaXqXsXsXwXwXwX=X&XaXaXaXsXiXsX[ < < : h ",
"s V V s p p S ,XlXtXjXjX@XtXjXtXtXjXjXtXtXjXtXI.m * [ Z.hXhXtX}.5X5X&X&XaXwXwXwXqXqX=XwXqXsXqXaXaXgXwX}.=XgXaXaXiXsX;XB < < < z ",
"Z s Z s p e Y wXjXjXjXrX6XjXjXhXjXjXjXjXhXjXjXvXtXv.  o.nXcXrX}.5X5X&XqXsXqXsXwXqX-X#XwXqXgXqXgXsXwXqX).qXqXaXqX5XdX).k < < h b ",
"J J A s p e ' yXjXjXjXtXjXhXjXjXjXtXtXjXtXjXtX9XtXmXW.< I.vX0X XaX=X#XaXqXqXaXqXaX#X=XgXaXaXqXqXwXgX=X'.gXqXaXqXiXfXC.& g < < b ",
"A K Z u p e ' rXjXjXjXrXhXjXrXjXjXrXjXjXjXjXtXjXjXrXvXT.m /.jX XiX%X-XaXqXaXaXaXgX#XqXaXsXaXqXqXqXgX#X%XqXaXaXqX5XfX2.X : : h z ",
"s J A u e e | rXjXtXrXjXjXrXtXtXhXjXjXtXtXjXjXtXjXjX9XvXT.:.j.XXiX`.-XqXaXaXqXaX-X#XaXqXaXaXqXgXqXwX).qXqXaXaXqX5XdX} @ : % , < ",
"u K K u y e q.iXjXrXtXjXjXrXjXtXtXjXrXhXjXjXhXtXjXtXhXrXbXoX+X[.=X].gXqXaX5XaXaX&X#XaX>XgXgXaXaXqX=X#XgX-XaXaXqXpX5XG . 2 % % : ",
"u J A s t e G.3XhXhXhX9XjXjXrXtXjXjXjXrXrXtXhXhXhXtXlXrXtXlXtXoX`.=XgX-XiXiXqXgX(.[.gXqX-XaX-XgXgX%X-XgXaXqXaXqXXX`.l # 1 % % 5 ",
"f f t f 8 x ).#XrXrXlXeX@XeXlXtXrXjXjXjXjXtXhXhXhXjXjXjXtXtX9X{._.-XqXaXiX-XiXpXC.U.sXqXaXaXgX-X-X-XaX-XaXaXqX=XXXC.o % % $ % : ",
"8 8 8 t 3 F -XJ.4XjXrXrX6X,XW.rXjXjXtXjXjXjXhXhXhXrXlXhXhXhX9XR.%XgXaXaX-X;XpXiX4X6X=XqX-XqXaXaXqXqXaXaXaX-XqX#X%X2.. $ $ % % : ",
"3 8 8 u 8 ' gXh.).lXtXrX1XyXeX1X1X6XrXtXrXhXjXhXhXhXjXlXhXhXlXI.&XgXaXaXXX-XpX`.R..X XiXaXaX-XgX-XqX-XgXaX-XgX'.%X{ . % $ 2 % % ",
"8 0 d A f | wXa.H.lXrXtXtX8XeXyXyX1X,X,X<XjXrXjXhXhXhXhXhXhXhX'.qX>XaX=X~.iXpX@X.Xx.{.pX>XaXaXaXgXqXqXqXaX-XgX).XXv o $ 1 # % : ",
"e e V K V 9.aXa.B.rXjXjXtXjXrX1XuXyXyXyX,XrXjXhXhXhXhXhXhXlX8X XgX5XgXJ. XpX*X7X8X.X&XaXqXaXqXaXqX-XgX-XqXaX-X(._.b o # # 1 $ % ",
"e f V K V V.;Xp.d.7XjXtXrXrXjXjX1X$X$X1X6XjXrXhXhXrXhXhXhXhX X-XqXsX%XJ.aXiX%X7XvX(.|.pXaXqX-XaXgXgXqXqXaXaX-X_.(.k # $ $ $ $ % ",
"u V I ! J I.:Xp.a.4XjXtXrXhXhXhXjXjXhXrXjXhXjXrXhXhXhXtXhX9XXXsXiXiXF.;XaX5X$XxX#Xa.^.gXqXqX>XqX-X-XqXgX5XpX%XXXH.g # # # $ $ % ",
"A A ~ ( U |.^.p.r.$XzXrXrXrXrXrXhXhXhXjXhXhXjXjXhXhXrXrXzX2X*XpXaX(.L.pX5X-XE.H.y.p.!.aXaXqXqXaXqXgX-XqX5XaX%X;XA.< $ # $ $ # 1 ",
"W K ! ) _ ;X!.r.y.w.`.rXbXzXjXhXhXhXrXrX9XhXhXhXrXhXhXjX6X{.pXpX;XB.iX5XiX;Xy.p.t.t.f.>XaXaXgXaXqXqXgXqXqXaX#X;Xw.# # # # 1 $ 1 ",
"! K ( ) 8.-XF.r.r.0.y.d.K.{.8XhXjXlXbXbXlXlXjXlXlXjXcX{.n.XXpXaXJ.|.iX5X3XB.y.h.~.a.s.[.aXaX>XaXqXgX-XqXqXaX_.:Xw.o # # # # # $ ",
"( W ^ _ 9.qXf.0.r.u.u.u.>.D U X.X.#.9.l.I.T.T.).{.Y.H.n.L.aXsX/.~.sX5XiX`.w.y.-XgX~.p.!.sXaXaXaX-XgX-XgXqX-X_.].w.# # # # # $ $ ",
"_ Q ! _ k.>Xa.t.r.u.0.u.} C S T T J d ` ] 3.m.n.m.m.N.n.&XgXXXB.5X5X3XiXH.1.N.qXiX>Xf.h.>XaX5XaXqXqXaXgXgX-X[.`.1.@ % @ $ # $ 1 ",
"_ ! ! 7.Q.>Xa.t.u.r.u.0.G S I Q ~ I A H v ] i.m.m.m.n.P.gX%XB.*XiXiXiX3XN.4.w.`.aXgX[.p._.aXiXiXqXqXqX-XgX%X'.].w.. % # & # # $ ",
"7.! Q ^ Q.;Xp.t.u.u.s.>.D S I Q ! W A F P a | m.m.n.N.-X-XJ.&XpX5X3XiXK.n. .3.C.aX-XaXh.F.sX5X5XqXqXqXqXaX#X:X-Xq.o 2 # & # # $ ",
"7.Q W ! W.[.0.t.r.f.f. .C S W Q R R J S ` S S 1.A.w.|.*XJ.;XiXiX3XcX).2.M.1.4.z.U.sXpX[.f.wX5XiXqXqXqXaXaX;X;X>Xq.8 2 # # # # # ",
"_ Q T ^ $X[.0.u.r.F.u.H D S R R R E T u F D A ' 3.P.XX(.3XpX3XiXgX-Xn.3.n.C.2.).C.&XiXiXJ.=XiXiXqXqXqX>X5X`.-XgX9.e # # # # 1 # ",
"W W T ! =X^.0.u.u.!.5.F L I ( / E E T Z S x d S 3._.`.>X5X5XpXpX`.3.z.K.@XrXc.9X7X{.iXpX_.%XpXiXqXaXqXaX5X(.*XdX9.V e . . # # # ",
"Q W T 8.qX!.0.r.f.~. .D L I / ) / E R s e C ' 9.XX*XiXpXdX*X|.K.1.i.|.cXzXbXT.@XvXoXXXpX;X%XsX5X5XqXqXaX-X(.iXdXq.A C # . # # # ",
"E Q T 8.pX!.r.0.!.!.{ S L L ( / E _ k.k.#.l.R.oXoX).Y.n.w.2.w.N.N.OX.X9XcXlX@XY.lXrX XiX-X#XaX5X5XaXqXaX&XJ.pXdX9.s y O @ @ @ @ ",
"7.E E 9.dXh.0.u.[.M.v a N L ( _ S.8X9XbXvXvXjX9XrX7X2XI.l.K.H.H.oX_.@XrXrXrXjXZ.0XbX8X|.-X|.5X5XqX5XqXaXXXB.pXdX@.s a # @ @ o o ",
"E 7.E 9.gXf.0.h.>X5.c N N L ..W.zXjXhX9XcXtXrXhXhXjXlXlXsX X).XX.XwXlXrXrXrXbX{..XjXjX X%X].5X5XqXqX5XsX_.B.pXdXV.y 9 # @ . . # ",
"E 7.7.D.gXf.0.!.>X .N N ] X.@XbX9XhXjXhXhXjXhXhXhXhXhXhXjX9X X@XhXtXcXjXjXrXlX8XW.jXrX9X|.`.5X5X;XaX5XsX/.f.iXpX`.' 1 2 @ . . # "
};
