/* XPM */
static char *_74e3bd8d57c434fa852514defd76f54zbvuw9cWWprmdXWc[] = {
/* columns rows colors chars-per-pixel */
"64 64 256 2 ",
"   c #0B090B",
".  c #130B0B",
"X  c #1B0B0B",
"o  c #190806",
"O  c #0E0B14",
"+  c #120D13",
"@  c #190D18",
"#  c #1A1417",
"$  c #17110D",
"%  c #250B0C",
"&  c #250D18",
"*  c #360B18",
"=  c #241514",
"-  c #221916",
";  c #251C19",
":  c #2C1C1B",
">  c #291518",
",  c #36191A",
"<  c #360D0A",
"1  c #2C211D",
"2  c #37221E",
"3  c #1B1425",
"4  c #1A122E",
"5  c #390A27",
"6  c #281726",
"7  c #381827",
"8  c #271A36",
"9  c #391835",
"0  c #2A0A2D",
"q  c #342323",
"w  c #3B2423",
"e  c #3A2828",
"r  c #372937",
"t  c #312932",
"y  c #4A0C15",
"u  c #471718",
"i  c #531012",
"p  c #6D1815",
"a  c #4F251D",
"s  c #461926",
"d  c #451537",
"f  c #591738",
"g  c #4E0C2B",
"h  c #6E0D30",
"j  c #442B25",
"k  c #472928",
"l  c #542A29",
"z  c #53332C",
"x  c #5A352B",
"c  c #482C36",
"v  c #493438",
"b  c #583436",
"n  c #512D30",
"m  c #64372B",
"M  c #672936",
"N  c #663A37",
"B  c #77373A",
"V  c #752E2F",
"C  c #712A1D",
"Z  c #774537",
"A  c #6E4435",
"S  c #59423F",
"D  c #1D154A",
"F  c #371B46",
"G  c #2C1A4E",
"H  c #372547",
"J  c #382955",
"K  c #332D4C",
"L  c #2D1D63",
"P  c #292466",
"I  c #372866",
"U  c #392C74",
"Y  c #491847",
"T  c #521750",
"R  c #68114A",
"E  c #483649",
"W  c #563745",
"Q  c #532656",
"!  c #583C56",
"~  c #492C52",
"^  c #663D45",
"/  c #6F2E4B",
"(  c #4E3371",
")  c #6B326D",
"_  c #631367",
"`  c #514553",
"'  c #694249",
"]  c #774547",
"[  c #754758",
"{  c #714F54",
"}  c #594668",
"|  c #524B74",
" . c #694766",
".. c #754866",
"X. c #775567",
"o. c #674977",
"O. c #725379",
"+. c #73626E",
"@. c #76635A",
"#. c #3A4057",
"$. c #8B3932",
"%. c #961A22",
"&. c #864A39",
"*. c #92503A",
"=. c #A94E38",
"-. c #A8643D",
";. c #873747",
":. c #8F3251",
">. c #880C73",
",. c #A93171",
"<. c #982A65",
"1. c #844846",
"2. c #994744",
"3. c #885547",
"4. c #995647",
"5. c #995957",
"6. c #8B4E56",
"7. c #A6594B",
"8. c #AE5550",
"9. c #926851",
"0. c #AA6748",
"q. c #B4674B",
"w. c #B97555",
"e. c #AF7053",
"r. c #875968",
"t. c #915371",
"y. c #AD546C",
"u. c #886768",
"i. c #957575",
"p. c #8F6B71",
"a. c #A67977",
"s. c #B67C77",
"d. c #AF6C6A",
"f. c #C85648",
"g. c #CD6F56",
"h. c #E77857",
"j. c #EA7654",
"k. c #C8776A",
"l. c #D17870",
"z. c #E57B6A",
"x. c #D04F76",
"c. c #CA3A45",
"v. c #BA8656",
"b. c #BA8767",
"n. c #B7847A",
"m. c #B28771",
"M. c #9E817F",
"N. c #C88A57",
"B. c #EB8A5A",
"V. c #CA9567",
"C. c #D78578",
"Z. c #D69876",
"A. c #CD926B",
"S. c #E68967",
"D. c #E98977",
"F. c #EC9472",
"G. c #D8A776",
"H. c #D5A972",
"J. c #E6B47A",
"K. c #E7AA73",
"L. c #F2A15A",
"P. c #EDC27D",
"I. c #3C3994",
"U. c #4F368A",
"Y. c #6A348C",
"T. c #5F2B98",
"R. c #574888",
"E. c #544D91",
"W. c #775A88",
"Q. c #66589A",
"!. c #6B518E",
"~. c #6D6595",
"^. c #5651A7",
"/. c #6F59A6",
"(. c #6A66A7",
"). c #7569A7",
"_. c #7679B7",
"`. c #716FB1",
"'. c #5D6CA4",
"]. c #7777CB",
"[. c #4952C2",
"{. c #AD0E95",
"}. c #B0338B",
"|. c #A12AA4",
" X c #D537A7",
".X c #F52BB6",
"XX c #CD2995",
"oX c #855885",
"OX c #94588B",
"+X c #8C6C91",
"@X c #AA7389",
"#X c #8578B8",
"$X c #8B76AB",
"%X c #A75FA0",
"&X c #C77D8A",
"*X c #EB5D88",
"=X c #F839DA",
"-X c #F42FCD",
";X c #FC38E5",
":X c #FF2FE0",
">X c #DB39DA",
",X c #947ACA",
"<X c #F443DA",
"1X c #BC3CC8",
"2X c #7886BB",
"3X c #768BCD",
"4X c #99858D",
"5X c #B38A8D",
"6X c #8E8BB7",
"7X c #AD93B1",
"8X c #ACA7B5",
"9X c #BFB19E",
"0X c #CE938D",
"qX c #EC968B",
"wX c #D6AC8D",
"eX c #ECAE8E",
"rX c #CC97AA",
"tX c #CFA8A8",
"yX c #EEB1A6",
"uX c #EAC687",
"iX c #F6C78A",
"pX c #FAD694",
"aX c #FBD090",
"sX c #FFE998",
"dX c #F1CCAB",
"fX c #EFE1AB",
"gX c #8788C8",
"hX c #948AC9",
"jX c #8897C7",
"kX c #9797C8",
"lX c #8799D7",
"zX c #9797D7",
"xX c #8988D4",
"cX c #AB96D2",
"vX c #94A7D4",
"bX c #ADB0D4",
"nX c #9098EA",
"mX c #94A8E6",
"MX c #A6BAE8",
"NX c #ADABEF",
"BX c #A998EA",
"VX c #CAA8D5",
"CX c #B8CBE8",
"ZX c #BDD2F2",
"AX c #B4CAED",
"SX c #B8C3D8",
"DX c #C9CBD1",
"FX c #C5D4EA",
"GX c #C8DAF4",
"HX c #CCD7EF",
"JX c #D9E6F6",
"KX c #D2E9F5",
"LX c #E3ECF8",
"PX c #ECF4FA",
"IX c #E5F3FA",
"UX c #F1FBFD",
/* pixels */
"f f R f :.;.& % > > > > = - = # $ - $ $ # ; , - $ $ - - # - ; - : : , : 1 6 2 2 2 k E v e 2 w c ! W c 7 2 e H r w w e e k k k [ ",
"R f f R f s & = = = - > > = = = - $ - - - 1 2 - - - - 1 ; - - 1 : 1 2 : q 2 w , k v k w e c  .+Xn k j r E E E c q w 7 k k k n [ ",
"f R g g = = > h :.x.l = - - = ; - - - - ; 2 , - - - - ; : : : 1 : q q 2 2 , j 2 j e k v W ^ W k j b ! W v e e v E k k k k k n b ",
"f g 6 - * f ;.x.x.*X6.$ # = , : ; ; ; ; 1 j 2 2 1 ; 1 1 q q 1 1 q w w j w j a j j j ' ' n k n W oXO.b l n v ! )  .v k r e k n b ",
"7 = & g R :.:.y.:.n f 7 - 1 ; : 1 1 1 2 2 a 2 1 1 1 1 q w w w 1 e q w j j j k k k z n n b ^  .! ' b z ' o.o.! W c n v k v c b b ",
"= s f :.:.:.x.B s f f V 2 # 1 1 1 1 2 < 2 a 2 2 2 2 q 2 w w e w 2 e w k k z z l z n k N r. .b z v [ %XoX[ N n n n v b n v n n b ",
"l / ;.V ;.:.8.B M f M B l 1 1 ; 1 1 2 2 a a 1 2 2 2 2 j j j j j j e e k z z z z x x z b ^ n b  .W.OX@X' x N ^ ^ W b n b b b n b ",
"/ V / :.:.;.:.M M M M V $.j 1 2 2 2 2 j m a z j 2 j a 2 j j z j z e , 2 j k k z b b b b b r.@XoX[ N k N ^ 6.5.^ N b W [ ^ b b N ",
"B ;./ ;.:.M / ;.B B 1.B B &.w 2 2 j e x m j j j j j j j w w w 2 S @.@.` ' ' b k l z b N x X.r.N m { t.[ 6.] B ^ ] ' [ [ ^ N ^ b ",
"d.d.$.2.2.l g l M B 1.B 2.:.B 2 j j z x x j j j j j j z z z j @.tX8XvXAXHXHXSX8Xi.{ m x N S m N ^ [ ] N N 1.6.5.6.[ ^ N N ^ ^ ^ ",
"y.d.5.:.$.B B x B ;.B $.$.2.7.m j m z A x 2 j j j z z z z ] wXuXDX8XvXAXMXJXLXPXLXFX8Xp.' N N ] Z B m A 6.y.5.6.1.] ^ ' ' ' [ ' ",
"d.y.5.&.;.4.0.M B B ;.1.2.8.8.2.z A m C x x z j z z z A j S wXeX9XvXAXAXGXGXLXLXJXLXFXkX4Xi.] B Z ] X.6.6.6.1.1.1.1.] B '  .....",
"k.5.5.3.1.w.8.M B ;.2.2.8.8.8.8.4.Z A Z m m x x z z A &.7 Y wX5X6XvXCXKXKXKXLXPXLXJXJXFX4Xu.@.@.6.t.r.1.] A 1.1.3.] 1.{ [ ..X...",
"q.0.s.C.8.q.g.B &.$.*.2.7.8.q.f.w.*.A A m x x m Z A &.&.7 b 0X9X8X8XSXKXPXIXLXLXLXLXGXJXJXDXM.u.i.p.1.Z Z ] ] r.u.6.5.[  .O...[ ",
"d.w.k.0Xk.q.l.7.B &.4.4.7.q.q.q.g.-.*.A A A A Z &.Z -.C r Y d.@X2X2X3XAXJXPXPXLXJXHXJXGXFXGXJXFX9X7X6X4X+.+.X.u.r.6.u.r.o.O.o.X.",
"k.A.Z.Z.C.g.B.7.r.t.t.4.7.q.q.g.q.N.-.A A *.&.Z -.-.v.C 9 Q h t.2X2XvXSXFXJXIXLXLXCXFXGXFXFXGXJXKXJXJXKXDX7X7X4X5X4X5X7X8X8X8XDX",
"8.Z.L.Z.Z.qXrXrXr.5.*.4.q.e.w.w.g.V.N.&.&.*.4.*.b.v.&.C e ^ R _ Y.3XnXAXFXJXLXLXKXKXAXFXCXKXCXKXJXJXJXJXKXIXLXIXPXPXPXPXUXPXIXIX",
"A.Z.K.wXtXVXyXF.w.*.4.0.q.w.g.b.N.V.V.w.*.-.-.0.J.H.C m r h R {.|.].MXNXAXJXLXJXGXZXAXAXFXFXZXKXJXPXPXLXKXKXKXKXKXJXLXIXLXLXLXIX",
"l.0XrXcX0XZ.S.F.F.4.4.e.e.w.v.V.V.V.G.G.0.0.q.g.uXH.=.l 9 h _ {.;X1X].ZXAXGXLXJXGXAXAX3XMXFXAXKXHXJXLXIXIXKXKXIXLXLXPXPXLXLXIXIX",
"DXDXdXeXJ.J.eXG.J.wXA.e.e.b.N.A.H.V.G.wXV.0.w.N.uXL.=.x J R >.T.1X>XT.3XHXFXZXFXZXZXCXvX2XFXAXMXGXKXKXLXIXUXIXKXLXLXPXPXPXPXPXKX",
"DXpXpXuXpXpXpXaXiXiXaXb.w.b.V.H.H.wXwXuXwXN.w.q.v.Z.C x J _ {.|.|.-X{.[.nXCXAXCXZXZXFXAX2X2XCXvX3XAXZXKXKXKXKXKXIXIXIXIXPXIXIXDX",
"uXuXuXuXiXuXeXeXeXyXyXeX0XwX5XwXwXuXwXwXwXA.0.4.*.Z.V z 8 Y _ {.{.1X{.T.`.jXvXMXCXFXCXFX3X2X3XFXmX3X3XMXAXGXKXKXGXKXIXKXIXIXIXKX",
"eXfXuXe.Z t.t.t.t.oXOX%XW.! 9 { wXm.b.c.:.:.B C $.=.$.a 9 Q F >.{.{.{.T E._.2X2XMXCXCXCXCX2X'.2XAXmX3XMX3XMXAXZXZXZXAXZXGXGXKXFX",
"m.H.] * k s g f ) Y.T.) 0 r r 6 W v $.%.s s * * < y < Z W OXY 0 {._ _ F 7 | 2X2X2XSXCXCXZX3X2X2X3XMXmX3XmX3X3XmXMXAXAXAXMXMXMXSX",
"l s k s s x A w 6 F H 9 9 F F 9 E W %.g 9 7 & @ & & % N r.OX%X8 F R T 5 5 T (.E.`.kXbXCXZXSX2X2X2X3XvX3X3X3XxX3X3XmXMXMXMXvXvXvX",
", 7 k 7 u d.eXS.5.j 7 7 6 6 8 9 c %.f 9 0 6 3 @ & & % x [ t.%XoX0 d 5 5 g %.} ).| ).6XvXbXCXFXvX2X3X3X3XmXbX3X3X].3X3XjXjXvXjX6X",
"7 , , * y p p $.1.l y s s s * 7 M %.d 7 0 & @ @ @ % * a b r.OX%XY.0 g h 2.X.4 | 2X+.+X$X6X6XbXCXKXKXZXCXMX2X_.2X].2X`.2X2X2X6X2X",
"> - j 3.@.9.3.] ] 3.5.7.N.wX3.s ^ g 9 0 @ @ # # X X u a w ' OXOXt.Q g 5.r.9 T ~ E.6X6X#X6X6X6X8X8XjX6X6X$X~.).$X`.).~.'.~.~.~.i.",
"m 1.Z P.sXsXsXsXaXaXpXaXpXpXqXt.[ d 0 > - 3 # > : : a a k 6 ! OX_ d ..'   + 9 Q o.U.6XbXcX6X$X+X2X4X~.+X+X).W.W.W.oXt.p.4Xa.y.5.",
"q.q.0.v.sXsXaXeXiXiXJ.eX&Xt./ 9 9 9 & 6 : * , : , 2 7 k : @ 6 ..[ B `   @ Q ) ) l.i.p.i.a.+XoX@X4X7X7XcX6Xr.y.f.f.2.*.j.z.l.4.1.",
"0.-.v.0.H.pXP.iXF.z.@X) g y * 0 7 6 6 7 , i * : w w w : @ 7 ) Y.!.Y.( U.) ) ) y.Z.b.e.0.a.bXSX8X7X@X4X7XrXC.h.j.g.f.c.f.f.4.3.4.",
"e.e.-.0.V.pXL.=.y.OXM y y y y * & 6 e 7 i i , 7 7 e 6 = - W Y ( ( _ Y Y 0 Q / OX0Xd.n.bXKXKXGXhXt.4.f.j.h.j.j.j.g.h.g.f.*.] x.l.",
"0.v.-.N.j.c.%.@Xt.y i i y y y 5 H ! E 5 p < : 7 t 6 1 # e / d 9 Y 5 0 * d _ Q t.7XcXFXKXGXbX@Xd.=.f.h.S.h.j.j.h.z.g.h.f.$.B 5.d.",
"v.v.L.f.%.%.%X] y i i i i i x J ( o.~ g h < , 6 6 1 8 + e R d f Y d 9 5 5 5 T Q !.cXVXVXrXd.q.q.g.h.j.B.B.h.B.h.S.S.z.g.=.B &.1.",
"v.V.x.%.c.l.d.H.A.q.4.V p B n I | (.( ;.}.X 3 6 # 3 @ 5 f Y Q Y d d 5 5 7 E.(._.mXcXNXVX7Xk.k.D.F.F.B.h.S.S.S.S.S.S.z.f.7.1.3.3.",
"v.Z.8.8.0Xw.H.eXaXpXpXpXpX=.d J E.I.! ,..X>.g d 7 : * f / d Y T d 9 5 @ K Q._.nXnXnXNXNXNXVXl.l.D.F.F.S.F.F.D.F.S.D.z.g.7.4.6.3.",
"v.0XD.0XV.V.G.J.yXaXaXsXsX*.u ! E.^.) ,.{.>.>.h g g g y n F Y Q } Q 5 & #.| | '.`.].nXnXNXNXcX=.g.h.B.B.B.L.F.F.D.qXz.f.5.5.5.5.",
"V.G.0Xn.H.H.G.eXaXpXpXsXP.=.i ` R.E.( _ T T 5 0 0 0 0 X.cX6XhXmX#XQ 5 t ` | | ~.Q.(.].].zXhXkXrXqXF.F.F.F.F.L.L.F.z.z.k.e.7.5.d.",
"V.Z.n.K.V.H.H.H.pXpXaXuXP.$.C z J U.U.T.I.^.E.U P 4 E 8X,X1XBX`.Y d > t ` t K ` | | R.Q.).`.(.zXbXtXyXeXqXqXqXF.D.D.l.g.d.8.d.d.",
"G.H.J.J.H.V.V.V.b.V.v.H.N.p p < 7 J U.U.U.I.E.I.I t +XxX,XnX(.T 9 7 = 1 e t 8 I R.E.E.Q.E.E./.xXzX6XtXeXeXqXqXF.z.l.k.l.l.d.g.d.",
"G.H.V.v.v.N.V.V.H.uXaXsXN.p p < > t J ( E.I.E.U.U ` 6X].Q.T.T.T d 5 * * , r 8 ( `.].].].].].xXnXnXzX6X6XrXqXqXz.z.l.l.l.k.k.d.d.",
"A.A.H.J.H.4Xb.H.J.J.P.sXN.%.u , & , e ~ U U.U I.P J zX,XT.U.Y._ 5 * 5 y * k s E O.`.,XnXnXnXnXnXxXxXkXgX#X!.&XD.z.C.z.0Xl.l.l.l.",
"G.J.eXN.{ } v.P.H.H.J.iXv.p < = , & , 7 K P P P P D W.hX_ T._ Q 5 * * i C p i b { o./.].^.^.`.].3X`.| I.!.E.o.0XqXz.z.l.qXz.0X0X",
"V.V.V.*.c v.J.4X~.e.P.P.v.u - - > > * i , 4 D P P D t jX/.U ( T g 5 g p 8.e.p V ] / } D 4 P P D P L P U Q.bX).o.&XqXqXqXz.qXz.D.",
"A.A.-.c { uX0.~ ] H.J.P.v.% X @ 3 # @ = < , 8 D D D # ~.zX_ Q T 5 5 i p g.aXl.=.8.t.~ 4 D G D D P P I.L R.lXgXQ.( +X*XyXqXyXqXqX",
"&X%Xy.] w.N.s M V.P.J.H.wXn q # O 3 3 @ $ % & @ 3 3 O t zX/.T Y 7 , a p eXyXeXeXl.l.) ( ~.`.Q.E.( P P U 6XMXvXjX(.R.p.0XyXyXl.l.",
"%X!.t.,.y.y.2.7.uXiXiXV.7XcXxX3X` O O # + 7 E r 8 3     +.xXQ Y s * < 4.dXyXeXyXyXrXrXVX#XzXlXlXgX_.'.zXzXzXbXzXzXkX#X$X0Xl.5Xs.",
"oX/.R.( W.OXy.8.0.b.0.Z l O.nXnXnX2XK O > , E | | | E.#.{ 6Xo., 6 c ! 7XdXqXrXNXBXBXBXBX(.lXlXjX3X3X`.lXzXzXhXzXhX#X#X~.k.@XW...",
"F R.].R.I Y.Y.oXt.M % : % . ` +.| ~.+.v 2 1 ` K t E.'.2XvX6X_.7 +.gXzXNXNXkX| gXNXBXBXmXzXzXzXzXzXzX6X`.].hXhXhX,X#X`.!.R.( U L ",
"~ J _.nX^.I.E.U.U.o.8 t $       . # 1 ' v ` #.t 3 #.I P | `.gX_.).2XjX6XmXNXlX| 3XzX3X_._.xXxXzXzXcXzXhX#X/.).`.,X#X`./.U.( ( ( ",
"~ G | xX[.[.`.L ( } ~ 8           . > N ` | t v K #.#.U ^.E.(.3XgX~.(.].`.xXxXE.| E.( J J R.!.~.#XhXhXcXhX#X).!.Q./././.)./.U.U ",
"J K J ^.[.I.^.U.P I ( G O       O   j ' } o.v ` ` K K 4 P R.P E.`.xX].( | #X/.J ~ G J r 6 ( } } } oX$X$X,X#X+X/.Q.!./.!.Q.Y.R.o.",
"H 8 3 8 P I.^.U.L L J J # O   O O . b ` +.` S ` E.#.8 K I K | R.^./.#X( 0 I F O K 3 t v b X.X.X.' oX%X!  .W.~.~.W.!.| W.oXr.i.a.",
"8 3 8 D K I ^.( T L J J 3 O   O + O e ` K 1 ` } ~.K #.| K K J I /.$XoXT F Q 0 c v v u.A.C.k.m.s.s.s.d.r.X...+.O.O.p.4XtXM.u.p.p.",
"8 t 8 K I I G F ~ L G t 3 + $ # +   t ` r 1 ` | W.e } +.#.E ~ ) _ T _ T T o.u.wXwXyXwXn.s.s.s.n.s.k.d.0X0X5X5X5X5XtXtX5Xi.u.u.u.",
"8 8 8 G 4 3 0 F 9 G G 8 3   O # # + . 1 ` e t } | j X.W.W | !. .Q ) T.L U ( O.@XtX0XZ.0XZ.0Xn.n.5Xs.s.5X5X5X5X0X5X5X5X4Xi.u.9.u.",
"@ 3 8 3 + @ 0 7 0 8 8 6 @ . . @ # +   t t r v #.E k X.oX/ O.%X^ +XnXBX$XU.U.I.U R.@X0XyXyXtX0X5Xn.s.a.s.a.d.i.a.p.i.M.i.u.u.@.u.",
"8 J J 4 O @ & $ & 0 0 6 +   . O O O   ; v ` v v x , n b ^ oXt.C @XBXBXBXBX%XY.T.Y.( J ! +.@X5X5Xn.a.s.d.u.u.9.u.p.p.M.p.@.u.@.u.",
"H F 8 @ + + X X X @ > - . . . + + + .   # $ 1 1 , u %.>.,.}.XXXX X=X=X=X;X;X>X1XY.Y.) 7 r ^ @X0X5Xs.d.u.5.u.u.p.u.u.i.@.p.{ { i.",
"7 8 3   . X X . . X = @ . . . + + . . .   # 1 # > , ,.-X=X.X.X.X.X.X-X-X-X-X:X:X>X|.t.<.p.rXtX0X0Xa.u.u.u.i.u.u.i.i.u.i.@.S i.4X",
"9 6 . . o o $ X X $ $ o X X X X o o . . o : 1 1 : , < p ,..X.X.X.X.X=X=X=X=X=X>X;X X}.y.<.<.a.0X5Xa.p.p.a.i.p.i.p.u.@.u.u.i.M.Z.",
"7 % . . . X X X X % % X = % X % % % o . X = q , , - % y i :.XXXXXXXXXX>X;X=X=X;X=X=X-X X}.}.<.<.<.y.l.0X5Xa.i.u.p.p.p.M.M.i.n.eX",
"* X o X o o X % % % % % i < i i < o o o X X > 2 > $ $ = , < < a C p p %.}.=X;X;X;X=X=X=X<X.X X}.,.,.}.OXoXp.p.u.p.i.4XZ.n.5XwX5X",
"& & X % % o % % < % < *.-.w.L.K.V.m < < % % X : $ $ = > = = > > , , a f l :.}.>X;X=X;X=X<X<X<X<X-X-X.X}.}.}.oXt.u.p.4Xi.C.0XeX5X"
};
